<?xml version="1.0" encoding="utf-8"?>
<!-- Generator: Adobe Illustrator 16.0.0, SVG Export Plug-In . SVG Version: 6.00 Build 0)  -->
<!DOCTYPE svg PUBLIC "-//W3C//DTD SVG 1.0//EN" "http://www.w3.org/TR/2001/REC-SVG-20010904/DTD/svg10.dtd">
<svg version="1.0" id="Layer_1" xmlns="http://www.w3.org/2000/svg" xmlns:xlink="http://www.w3.org/1999/xlink" x="0px" y="0px"
	 width="371.753px" height="363.72px" viewBox="0 0 371.753 363.72" enable-background="new 0 0 371.753 363.72"
	 xml:space="preserve">
<g>
	<path fill-rule="evenodd" clip-rule="evenodd" fill="#FFFFFF" d="M186.465,346.911c-39.719,22.943-79.074,23.532-115.573-5.283
		c-32.956-26.018-42.55-61.315-33.528-102.257C3.051,207.81-9.876,169.794,8.081,125.245C23.134,87.9,52.886,68.764,93.68,64.641
		c1.203-2.539,2.654-5.812,4.279-8.996C114.696,22.829,141.439,3.593,178,0.388c42.962-3.766,79.025,20.27,95.901,55.369
		c1.435,2.983,2.788,6.006,4.035,8.699c43.429,4.664,74.469,25.883,88.277,67.438c14.013,42.168,0.702,77.688-31.589,107.21
		c9.049,42.056-1.548,78.219-36.686,104.178C262.368,369.561,224.398,368.588,186.465,346.911z M255.854,66.108
		c-10.063-27.811-41.453-47.516-73.169-46.272c-33.99,1.332-61.245,26.37-66.324,45.945c0.485,0.416,0.913,1.091,1.463,1.213
		c28.945,6.421,50.541,22.729,65.293,48.331c0.723,1.253,1.928,2.229,3.068,3.514C206.918,84.29,228.523,73.288,255.854,66.108z
		 M45.956,218.429c8.092-12.603,17.689-23.898,30.068-32.59c12.636-8.872,26.904-13.73,43.087-17.046
		c-11.059-11.793-19.655-23.862-24.758-38.09c-5.187-14.456-6.938-29.403-5.52-44.708c-24.531,0.753-54.362,20.44-64.911,52.347
		C12.873,171.766,28.289,205.938,45.956,218.429z M56.725,250.761c-8.736,24.349,4.242,60.941,30.563,78.805
		c25.513,17.314,63.722,18.643,81.953,2.25c-21.411-23.531-29.284-51.41-25-83.803C114.702,262.749,85.761,263.205,56.725,250.761z
		 M253.211,168.547c32.738,5.456,56.525,22.494,72.9,49.879c18.807-14.256,33.411-49.253,20.658-83.275
		c-12.086-32.241-44.809-50.123-63.345-48.772c0,4.903,0.239,9.823-0.067,14.709c-0.312,4.967-0.882,9.956-1.854,14.832
		c-0.974,4.877-2.307,9.727-3.993,14.403c-1.688,4.679-3.739,9.276-6.127,13.638c-2.39,4.365-5.216,8.526-8.18,12.533
		C260.305,160.413,256.989,164.026,253.211,168.547z M202.98,332.215c19.668,13.966,60.734,16.271,88.554-8.812
		c21.081-19.009,32.649-53.82,23.353-72.666c-29.005,12.738-57.897,11.736-87.445-2.715
		C232.161,280.665,223.895,308.443,202.98,332.215z M205.541,196.733c16.621,37.903,67.729,54.957,103.361,33.945
		C293.811,194.966,243.793,175.058,205.541,196.733z M186.429,319.479c30.244-26.605,29.7-84.575-1.013-107.813
		C154.949,238.206,155.811,294.689,186.429,319.479z M63.403,230.542c34.417,21.668,88.171,3.213,102.218-33.447
		C130.753,176.931,79.68,193.284,63.403,230.542z M173.729,173.653c8.279-37.063-20.873-82.428-63.643-87.307
		c-4.114,10.113-1.563,20.231,0.792,30.109c3.811,15.976,12.324,29.304,24.885,39.914
		C146.594,165.52,158.915,171.493,173.729,173.653z M262.264,85.783c-39.002,8.063-62.953,35.238-65.951,73.567
		c-0.386,4.937,0.018,9.759,2.414,14.47c23.241-4.463,41.067-16.251,53.157-35.978C261.487,122.172,265.908,105.17,262.264,85.783z"
		/>
</g>
</svg>
