<?xml version="1.0" encoding="utf-8"?>
<!-- Generator: Adobe Illustrator 16.0.0, SVG Export Plug-In . SVG Version: 6.00 Build 0)  -->
<!DOCTYPE svg PUBLIC "-//W3C//DTD SVG 1.0//EN" "http://www.w3.org/TR/2001/REC-SVG-20010904/DTD/svg10.dtd">
<svg version="1.0" id="Layer_1" xmlns="http://www.w3.org/2000/svg" xmlns:xlink="http://www.w3.org/1999/xlink" x="0px" y="0px"
	 width="472.892px" height="242.629px" viewBox="0 0 472.892 242.629" enable-background="new 0 0 472.892 242.629"
	 xml:space="preserve">
<g>
	<path fill-rule="evenodd" clip-rule="evenodd" fill="#FFFFFF" d="M268.694,95.27c-0.739-0.367-2.408-0.636-2.994-1.577
		c-5.094-8.185-10.065-16.446-14.897-24.788c-1.286-2.22-1.963-4.793-2.878-7.1c4.647-8.13,10.86-14.195,16.861-20.353
		c22.117-22.688,48.617-36.871,80.31-40.815c13.433-1.672,26.626,0.154,39.62,3.119c27.621,6.302,50.565,20.026,67.052,43.611
		c9.32,13.334,15.198,28.181,18.112,44c4.583,24.865,4.246,49.781-3.166,74.13c-11.303,37.123-35.262,62.282-72.861,72.928
		c-28.326,8.021-55.947,4.076-82.777-7.676c-33.353-14.608-57.552-39.096-76.279-69.574c-5.047-8.217-9.496-16.816-13.932-25.39
		c-11.66-22.534-24.244-44.452-41.162-63.568c-13.396-15.135-29.438-26.391-49.594-29.762c-28.732-4.805-54.308,1.511-73.988,24.597
		c-5.266,6.177-8.665,13.473-10.945,21.171c-5.787,19.525-6.86,39.498-2.047,59.2c5.292,21.667,18.971,37.158,39.498,46.082
		c19.143,8.321,38.764,8.537,58.525,2.14c1.891-0.612,3.742-1.407,5.51-2.318c1.424-0.734,2.692-1.772,4.289-2.851
		c-2.074-4.407-6.107-6.422-9.098-9.407c-3.396-3.389-3.397-3.387-2.904-10.576c24.314-7.703,49.307-14.225,74.449-21.049
		c1.855,1.956,3.383,3.567,4.949,5.218c-4.41,25.479-7.775,50.801-12.584,75.134c-4.126,2.953-7.09,2.341-9.912-0.117
		c-4.004-3.486-8.007-6.972-12.212-10.633c-1.745,0.848-3.294,1.394-4.619,2.275c-20.978,13.958-44.103,19.514-69.181,18.84
		c-24.129-0.649-45.819-7.963-65.093-22.174C19.245,199.186,4.755,173.56,1.229,142.281c-2.433-21.597-1.495-43.179,4.994-64.312
		c11.249-36.627,35.15-60.842,71.573-71.734c46.335-13.858,87.44-3.532,122.707,29.625c14.433,13.568,26.129,29.362,36.327,46.225
		c7.059,11.669,13.582,23.681,19.939,35.751c8.559,16.246,17.602,32.117,29.79,46.009c16.576,18.893,36.993,31.404,61.585,36.592
		c14.262,3.009,28.486,2.277,42.215-3.263c20.018-8.077,32.348-23.061,37.904-43.522c5.6-20.626,5.884-41.528,0.133-62.196
		c-7.063-25.383-24.238-40.782-49.281-47.547c-25.721-6.949-49.437-2.228-71.078,13.276c-12.342,8.842-22.094,20.184-31.285,32.075
		C274.728,91.881,273.13,94.949,268.694,95.27z"/>
</g>
</svg>
