<?xml version="1.0" encoding="utf-8"?>
<!-- Generator: Adobe Illustrator 16.0.0, SVG Export Plug-In . SVG Version: 6.00 Build 0)  -->
<!DOCTYPE svg PUBLIC "-//W3C//DTD SVG 1.0//EN" "http://www.w3.org/TR/2001/REC-SVG-20010904/DTD/svg10.dtd">
<svg version="1.0" id="Layer_1" xmlns="http://www.w3.org/2000/svg" xmlns:xlink="http://www.w3.org/1999/xlink" x="0px" y="0px"
	 width="353.834px" height="367.943px" viewBox="0 0 353.834 367.943" enable-background="new 0 0 353.834 367.943"
	 xml:space="preserve">
<g>
	<path fill-rule="evenodd" clip-rule="evenodd" fill="#FFFFFF" d="M347.291,149.287c3.941,8.985,4.839,18.681,5.707,28.207
		c2.738,30.039-1.092,59.274-13.887,86.773c-26.001,55.887-69.162,90.578-130.127,100.98
		c-52.906,9.027-100.287-4.789-141.705-38.974c-36.256-29.924-58.889-68.2-65.189-114.532C-7.76,139.313,17.3,80.1,75.273,35.539
		c26.435-20.318,56.936-31.176,90.213-34.54c49.548-5.009,93.379,8.959,132.601,38.865c2.907,2.217,5.597,4.733,8.276,7.229
		c0.947,0.882,1.563,2.12,2.371,3.252c-0.314,5.025-4.489,7.236-7.314,10.322c-2.698,2.945-5.564,5.754-8.519,8.444
		c-3.136,2.855-5.53,6.733-9.493,7.796c-4.285-0.386-6.336-3.253-8.875-5.312c-24.224-19.643-51.893-31.389-82.895-33.884
		c-35.376-2.849-68.224,5.811-97.4,26.23c-34.413,24.084-55.502,57.19-62.371,98.589c-6.999,42.179,3.221,80.545,28.62,114.89
		c11.783,15.933,25.378,30.007,42.136,40.796c23.397,15.063,48.752,24.058,76.742,25.622c50.791,2.839,93.403-14.567,127.893-51.587
		c20.228-21.712,32.642-47.655,38.154-76.82c3.496-18.498,3.631-37.059,0.466-55.635c-0.278-1.629-0.233-3.313-0.339-4.971
		C345.615,152.82,344.901,150.563,347.291,149.287z"/>
	<path fill-rule="evenodd" clip-rule="evenodd" fill="#FFFFFF" d="M261.067,138.065c2.048,7.599,2.128,27.577,0.253,35.676
		c-0.242,0.209-0.46,0.458-0.73,0.616c-0.283,0.164-0.618,0.341-0.931,0.341c-48.214,0.094-96.427,0.176-144.641,0.232
		c-1.296,0.001-2.593-0.282-3.786-0.421c-2.098-6.449-2.521-22.474-0.939-36.102c2.046-0.283,4.248-0.851,6.45-0.854
		c46.227-0.051,92.453-0.044,138.681-0.014C257.355,137.543,259.288,137.893,261.067,138.065z"/>
	<path fill-rule="evenodd" clip-rule="evenodd" fill="#FFFFFF" d="M110.741,237.209c-1.539-7.159-1.762-24.143-0.375-35.125
		c1.346-0.279,2.888-0.878,4.43-0.879c47.308-0.041,94.614-0.027,141.922,0.004c1.284,0.001,2.567,0.285,3.708,0.42
		c2.193,7.076,2.432,25.982,0.549,35.49c-0.229,0.231-0.428,0.519-0.701,0.675c-0.281,0.159-0.632,0.253-0.957,0.267
		c-3.318,0.145-6.639,0.379-9.958,0.378c-45.308-0.017-90.614-0.064-135.922-0.133c-0.626-0.001-1.261-0.347-1.872-0.581
		C111.268,237.611,111.014,237.385,110.741,237.209z"/>
	<path fill-rule="evenodd" clip-rule="evenodd" fill="#FFFFFF" d="M347.291,149.287c-2.39,1.276-1.676,3.533-1.752,5.54
		c-5.057-21.053-14.413-40.364-24.124-59.531l-0.147,0.141c0.826,0.442,1.955,0.675,2.434,1.36
		c10.584,15.201,18.49,31.685,23.42,49.561C347.375,147.279,347.243,148.309,347.291,149.287z"/>
	<path fill-rule="evenodd" clip-rule="evenodd" fill="#FFFFFF" d="M321.415,95.296c-0.682-0.852-1.364-1.704-2.046-2.556
		c0.333-0.147,0.666-0.295,0.998-0.442c0.301,1.046,0.6,2.092,0.9,3.139L321.415,95.296z"/>
</g>
</svg>
