<?xml version="1.0" encoding="utf-8"?>
<!-- Generator: Adobe Illustrator 16.0.0, SVG Export Plug-In . SVG Version: 6.00 Build 0)  -->
<!DOCTYPE svg PUBLIC "-//W3C//DTD SVG 1.0//EN" "http://www.w3.org/TR/2001/REC-SVG-20010904/DTD/svg10.dtd">
<svg version="1.0" id="Layer_1" xmlns="http://www.w3.org/2000/svg" xmlns:xlink="http://www.w3.org/1999/xlink" x="0px" y="0px"
	 width="358.359px" height="379.685px" viewBox="0 0 358.359 379.685" enable-background="new 0 0 358.359 379.685"
	 xml:space="preserve">
<g>
	<path fill-rule="evenodd" clip-rule="evenodd" fill="#FFFFFF" d="M329.506,378.635c-8.768,1.396-74.75,1.402-83.685,0.003
		c-0.553-1.526-1.503-3.27-1.769-5.11c-0.329-2.285-0.099-4.651-0.099-6.982c-0.003-62.269-0.004-124.537-0.005-186.806
		c0-1.665,0.094-3.336-0.014-4.994c-0.395-6.097,1.971-10.777,6.441-14.957c15.808-14.779,31.39-29.8,47.075-44.71
		c8.205-7.799,16.414-15.594,24.704-23.301c1.851-1.72,4.05-3.065,6.623-4.98c1.092,2.199,2.16,3.535,2.389,5.002
		c0.355,2.278,0.162,4.646,0.162,6.977c0.004,89.574,0.013,179.147-0.029,268.722C331.3,371.064,332.166,374.841,329.506,378.635z"
		/>
	<path fill-rule="evenodd" clip-rule="evenodd" fill="#FFFFFF" d="M137.059,194.971c9.094,6.484,14.676,13.568,21.047,19.757
		c6.404,6.222,12.6,12.657,19.294,19.411c2.48-2.275,4.453-3.956,6.279-5.784c9.415-9.428,18.769-18.919,28.203-28.327
		c2.296-2.289,4.821-4.348,7.999-7.189c1.381,2.518,2.666,4.021,3.021,5.719c0.469,2.243,0.255,4.638,0.256,6.968
		c0.009,53.966,0.021,107.933-0.022,161.898c-0.003,3.874,0.992,8.08-3.335,11.989c-25.483,0.477-51.74,0.153-77.992,0.147
		c-1.569-0.001-3.139-0.646-5.148-1.088c-0.384-2.509-1.016-4.721-1.018-6.933c-0.058-55.965-0.062-111.931-0.006-167.896
		C135.639,201.492,136.318,199.341,137.059,194.971z"/>
	<path fill-rule="evenodd" clip-rule="evenodd" fill="#FFFFFF" d="M308.225,30.919c-3.879-6.257-10.503-9.287-13.465-16.408
		c10.485-4.397,21.365-5.585,31.845-8.039c10.231-2.396,20.374-5.55,31.479-6.472c1.25,7.963-2.096,14.73-3.17,21.751
		c-1.054,6.884-2.968,13.634-4.472,20.45c-1.566,7.102-3.093,14.212-4.826,22.19c-2.459-1.143-4.413-1.549-5.643-2.717
		c-3.609-3.429-6.932-7.16-10.257-10.659c-4.645,1.059-6.602,4.385-9.08,6.859c-44.572,44.482-89.084,89.026-133.613,133.553
		c-2.799,2.799-5.636,5.561-8.95,8.827c-7.914-6.275-14.214-13.522-21.021-20.206c-6.894-6.77-13.66-13.669-20.496-20.497
		c-6.784-6.775-13.586-13.532-20.938-20.854c-32.564,32.552-64.543,64.519-96.828,96.792C11.142,230.469,5.859,223.723,0,217.693
		c4.349-6.559,107.68-110.18,116.134-116.423c10.484,9.438,20.237,19.834,30.326,29.869c10.146,10.092,20.12,20.354,29.665,30.03
		c1.323,0,1.666,0.048,1.987-0.014c0.308-0.06,0.669-0.158,0.879-0.367C221.45,118.439,263.9,76.081,306.33,33.703
		C307.009,33.024,307.438,32.094,308.225,30.919z"/>
	<path fill-rule="evenodd" clip-rule="evenodd" fill="#FFFFFF" d="M111.373,181.996c0.412,1.945,1.05,3.553,1.051,5.161
		c0.049,62.297,0.046,124.595-0.008,186.892c-0.001,1.26-0.676,2.52-1.15,4.18c-1.852,0.461-3.713,1.319-5.577,1.326
		c-24.318,0.094-48.638,0.087-72.957,0.026c-1.909-0.005-3.817-0.597-6.085-0.977c-0.41-1.907-1.037-3.463-1.038-5.019
		c-0.034-36.646-0.002-73.291,0.035-109.936c0.001-0.655,0.218-1.31,0.547-3.156c1.696-1.939,3.884-4.857,6.484-7.344
		c23.108-22.104,46.264-44.156,69.49-66.136C104.453,184.85,106.312,181.643,111.373,181.996z"/>
</g>
</svg>
