<?xml version="1.0" encoding="utf-8"?>
<!-- Generator: Adobe Illustrator 16.0.0, SVG Export Plug-In . SVG Version: 6.00 Build 0)  -->
<!DOCTYPE svg PUBLIC "-//W3C//DTD SVG 1.0//EN" "http://www.w3.org/TR/2001/REC-SVG-20010904/DTD/svg10.dtd">
<svg version="1.0" id="Layer_1" xmlns="http://www.w3.org/2000/svg" xmlns:xlink="http://www.w3.org/1999/xlink" x="0px" y="0px"
	 width="500.744px" height="350.271px" viewBox="0 0 500.744 350.271" enable-background="new 0 0 500.744 350.271"
	 xml:space="preserve">
<g>
	<path fill-rule="evenodd" clip-rule="evenodd" fill="#FFFFFF" d="M242.007,190.876c-2.412,4.166-4.121,6.955-5.675,9.829
		c-10.454,19.328-20.891,38.667-31.296,58.021c-2.24,4.167-4.343,8.402-11.092,8.924c-1.636-0.887-4.182-2.266-7.144-3.87
		c-5.719-39.634-11.403-79.032-17.372-120.405c-2.085,3.404-3.406,5.117-4.268,7.035c-8.313,18.523-16.553,37.08-24.801,55.633
		c-1.621,3.645-2.884,7.539-7.927,9.739c-41.638,0-84.236,0-127.294,0c-1.419-1.626-3.398-3.11-4.305-5.086
		c-2.311-5.041,0.357-10.487,5.742-11.691c2.875-0.644,5.958-0.474,8.947-0.478c33.654-0.037,67.309-0.037,100.963-0.047
		c2.312,0,4.624,0,7.439,0c1.428-2.709,2.946-5.23,4.135-7.9c11.639-26.153,23.205-52.34,34.845-78.493
		c1.342-3.015,3.004-5.888,4.105-8.026c4.414-3.333,8.107-3.516,12.977-0.336c0.606,1.768,1.985,4.443,2.418,7.264
		c2.725,17.758,5.274,35.543,7.812,53.328c2.866,20.093,5.637,40.199,8.538,60.286c0.169,1.169,1.138,2.223,2.119,4.044
		c14.367-24.795,26.581-49.905,40.868-74.145c3.41-0.2,6.288-0.369,8.248-0.484c4.077,2.422,5.486,5.231,6.074,8.721
		c3.267,19.355,6.644,38.692,9.938,58.043c4.242,24.918,8.433,49.846,12.705,74.758c0.147,0.857,0.942,1.603,2.092,3.461
		c1.202-3.045,2.25-5.235,2.944-7.531c9.54-31.534,19.04-63.08,28.532-94.629c18.692-62.131,37.371-124.266,56.074-186.395
		c0.574-1.906,1.131-3.874,2.079-5.603c3.303-6.021,10.625-6.505,14.841-1.01c1.001,1.304,1.7,2.86,2.422,4.355
		c14.611,30.28,29.206,60.567,43.802,90.854c0.289,0.6,0.576,1.201,0.825,1.816c3.151,7.779,1.772,10.811-6.538,14.395
		c-5.589-0.092-7.979-3.979-10.07-8.35c-6.467-13.512-12.996-26.992-19.509-40.482c-4.909-10.166-9.83-20.328-14.994-31.005
		c-3.861,2.682-3.908,6.542-4.888,9.765c-10.057,33.103-20.018,66.234-29.974,99.367c-19.53,64.998-39.035,130.006-58.578,195.001
		c-0.668,2.221-1.353,4.52-2.524,6.485c-1.835,3.076-4.719,4.614-8.438,4.157c-3.256-0.4-5.648-2.089-6.78-5.146
		c-0.801-2.165-1.32-4.465-1.714-6.747c-8.02-46.582-15.993-93.173-24.028-139.753C243.918,196.415,243.061,194.369,242.007,190.876
		z"/>
	<path fill-rule="evenodd" clip-rule="evenodd" fill="#FFFFFF" d="M437.606,264.271c-1.758-1.54-3.313-2.751-4.695-4.134
		c-15.557-15.551-31.114-31.102-46.617-46.707c-11.383-11.459-14.599-25.127-10.083-40.461
		c4.106-13.941,13.015-22.957,27.854-25.251c1.313-0.203,2.609-0.511,3.543-0.695c13.183,0.552,20.85,10.062,30.058,17.466
		c9.1-7.523,17.146-16.481,30.587-17.514c2.43,0.498,5.809,0.816,8.926,1.893c13.303,4.597,20.487,14.686,22.804,27.966
		c2.483,14.237-1.022,26.96-11.745,37.458c-15.479,15.154-30.632,30.643-45.951,45.961
		C440.901,261.637,439.313,262.815,437.606,264.271z"/>
</g>
</svg>
