<?xml version="1.0" encoding="utf-8"?>
<!-- Generator: Adobe Illustrator 16.0.0, SVG Export Plug-In . SVG Version: 6.00 Build 0)  -->
<!DOCTYPE svg PUBLIC "-//W3C//DTD SVG 1.0//EN" "http://www.w3.org/TR/2001/REC-SVG-20010904/DTD/svg10.dtd">
<svg version="1.0" id="Layer_1" xmlns="http://www.w3.org/2000/svg" xmlns:xlink="http://www.w3.org/1999/xlink" x="0px" y="0px"
	 width="380.688px" height="381.101px" viewBox="0 0 380.688 381.101" enable-background="new 0 0 380.688 381.101"
	 xml:space="preserve">
<g>
	<path fill-rule="evenodd" clip-rule="evenodd" fill="#FFFFFF" d="M299.937,191.724c0.222,57.853-46.291,108.443-108.214,109.316
		c-59.174,0.835-110.291-45.821-110.81-108.769c-0.518-62.959,50.272-110.232,109.253-110.33
		C252.049,81.839,300.188,132.268,299.937,191.724z M173.294,137.794c-5.993-0.469-9.316,2.684-12.885,4.834
		c-25.53,15.383-32.25,46.467-22.508,69.783c10.903,26.094,39.247,40.137,66.24,33.449c21.4-5.302,41.267-24.303,43.16-51.518
		c1.713-24.617-13.097-46.269-33.436-55.491c-1.576-0.715-3.498-0.667-5.752-1.06c0,7.088,0,13.321,0,19.087
		c3.855,3.541,7.591,6.396,10.626,9.863c11.05,12.627,12.121,30.712,2.725,44.376c-10.037,14.595-26.346,20.492-42.917,14.775
		c-29.37-10.132-32.438-45.725-12.81-63.107c2.461-2.18,5.121-4.134,7.557-6.086C173.294,150.405,173.294,144.481,173.294,137.794z
		 M197.779,165.909c1.247-13.838,0.748-28.635,0.236-42.923c-7.279-6.979-9.108-6.85-15.705,1.118
		c0,11.643,0.024,23.892-0.016,36.141c-0.011,3.508,0.859,6.543,3.979,8.78C190.154,170.319,193.931,170.492,197.779,165.909z"/>
	<path fill-rule="evenodd" clip-rule="evenodd" fill="#FFFFFF" d="M199.797,32.302c0,6.32,0.005,12.641-0.004,18.962
		c-0.002,1.662,0.111,3.346-0.108,4.982c-0.7,5.24-4.474,8.776-9.204,8.794c-4.203,0.015-7.935-3.192-8.971-7.904
		c-0.353-1.605-0.441-3.296-0.446-4.949c-0.036-12.974-0.046-25.947,0.004-38.921c0.007-1.979,0.132-4.016,0.608-5.925
		c1.156-4.639,5.127-7.611,9.405-7.321c4.41,0.299,8.007,3.527,8.513,8.343c0.415,3.951,0.178,7.973,0.199,11.964
		C199.814,24.317,199.798,28.31,199.797,32.302z"/>
	<path fill-rule="evenodd" clip-rule="evenodd" fill="#FFFFFF" d="M192.28,315.755c2.227,1.893,4.898,4.162,7.563,6.427
		c0,16.503,0.107,32.451-0.112,48.395c-0.034,2.469-0.986,5.374-2.507,7.286c-4.353,5.472-12.854,3.695-15.214-2.968
		c-0.545-1.541-0.875-3.246-0.881-4.877c-0.061-14.3-0.221-28.604,0.061-42.898C181.334,319.872,183.138,318.331,192.28,315.755z"/>
	<path fill-rule="evenodd" clip-rule="evenodd" fill="#FFFFFF" d="M116.574,80.483c-8.144-14.029-16.17-27.811-24.127-41.631
		c-0.814-1.414-1.218-3.064-1.719-4.362c2.157-7.54,2.157-7.54,9.169-10.519c4.326,0.402,7.185,3.016,9.254,6.644
		c7.078,12.41,14.09,24.857,21.177,37.263c2.342,4.101,3.011,8.164-0.279,11.997C127.304,83.073,123.875,83.201,116.574,80.483z"/>
	<path fill-rule="evenodd" clip-rule="evenodd" fill="#FFFFFF" d="M256.708,82.837c-4.908-0.865-7.799-4.002-8.557-9.911
		c0.854-1.94,1.714-4.456,3.003-6.729c6.724-11.853,13.558-23.643,20.351-35.456c0.332-0.576,0.589-1.201,0.968-1.743
		c5.232-7.478,12.925-6.682,16.864,1.782c0.4,0.859,0.322,1.941,0.525,3.328c-0.49,1.232-0.928,2.852-1.729,4.267
		c-7.04,12.436-14.223,24.791-21.182,37.272C264.888,79.349,262.485,82.247,256.708,82.837z"/>
	<path fill-rule="evenodd" clip-rule="evenodd" fill="#FFFFFF" d="M248.449,309.001c0.303-6.525,3.594-9.343,8.193-10.948
		c4.113,0.3,7.327,1.856,9.27,5.289c8.003,14.132,15.919,28.313,23.852,42.483c0.153,0.273,0.128,0.646,0.404,2.205
		c-0.694,1.695-1.789,4.368-2.57,6.276c-4.495,2.974-8.207,3.39-13.167,0.272C265.607,340.049,256.353,324.412,248.449,309.001z"/>
	<path fill-rule="evenodd" clip-rule="evenodd" fill="#FFFFFF" d="M81.731,118.738c0,3.013,0,6.211,0,10.122
		c-2.721,1.529-5.497,3.089-8.552,4.807c-4.709-2.604-9.041-4.979-13.352-7.389c-8.68-4.854-17.379-9.675-26.004-14.624
		c-2.566-1.473-5.183-3.047-7.293-5.077c-3.113-2.996-3.304-7.406-1.043-10.942c2.258-3.531,6.242-5.004,10.405-3.764
		c0.939,0.279,1.834,0.763,2.691,1.255c13.509,7.752,27.013,15.513,40.497,23.31C79.919,116.922,80.578,117.723,81.731,118.738z"/>
	<path fill-rule="evenodd" clip-rule="evenodd" fill="#FFFFFF" d="M355.917,95.624c0,3.313,0,6.236,0,8.736
		c-6.413,5.938-39.936,25.341-48.955,28.4c-1.242-0.447-3.007-0.697-4.298-1.614c-5.737-4.071-5.942-10.77-0.587-15.154
		c0.767-0.628,1.678-1.084,2.543-1.585c11.813-6.852,23.604-13.739,35.455-20.523C345.361,90.858,350.628,89.724,355.917,95.624z"/>
	<path fill-rule="evenodd" clip-rule="evenodd" fill="#FFFFFF" d="M123.791,298.211c9.101,3.881,10.839,7.899,6.449,16.075
		c-4.857,9.046-10.157,17.854-15.267,26.764c-1.813,3.16-3.589,6.343-5.462,9.467c-2.324,3.878-5.286,7.131-10.28,6.42
		c-5.455-0.775-7.629-4.684-8.204-10.748c2.706-4.825,5.742-10.31,8.845-15.756c4.759-8.352,9.659-16.624,14.307-25.037
		C116.216,301.709,118.637,298.827,123.791,298.211z"/>
	<path fill-rule="evenodd" clip-rule="evenodd" fill="#FFFFFF" d="M81.928,252.106c0,4.058,0,6.965,0,10.404
		c-1.987,1.524-3.899,3.347-6.121,4.637c-11.736,6.82-23.524,13.552-35.361,20.195c-1.968,1.104-4.207,2.028-6.417,2.331
		c-4.163,0.571-8.15-2.081-9.443-5.739c-1.163-3.29-0.058-7.501,2.756-9.952c0.987-0.859,2.188-1.489,3.333-2.15
		c12.038-6.956,24.064-13.934,36.149-20.806c1.99-1.132,4.252-1.784,6.953-2.889C76.139,249.288,78.732,250.551,81.928,252.106z"/>
	<path fill-rule="evenodd" clip-rule="evenodd" fill="#FFFFFF" d="M308.839,247.732c15.42,8.88,30.943,17.819,46.885,27
		c0.214,3.91,0.405,7.404,0.553,10.114c-5.374,6.207-10.419,5.509-15.928,2.276c-12.921-7.581-25.935-15.003-38.618-22.319
		C296.291,255.291,297.416,252.159,308.839,247.732z"/>
	<path fill-rule="evenodd" clip-rule="evenodd" fill="#FFFFFF" d="M63.972,194.134c-2.585,4.474-6.102,5.638-10.426,5.613
		c-15.631-0.09-31.263-0.035-46.373-0.035c-9.146-6.625-9.424-9.93-1.527-17.796c17.17,0,34.771,0,52.749,0
		C63.605,184.001,65.349,188.128,63.972,194.134z"/>
	<path fill-rule="evenodd" clip-rule="evenodd" fill="#FFFFFF" d="M322.616,199.747c-8.522-7.754-8.534-10.502-0.128-18.27
		c8.025,0,16.976,0,25.927,0c8.641,0,17.282,0,26.188,0c1.714,1.621,3.868,2.901,4.915,4.794c3.017,5.452-0.076,11.806-6.112,13.182
		c-0.964,0.22-1.981,0.281-2.974,0.282C354.47,199.752,338.508,199.747,322.616,199.747z"/>
</g>
</svg>
