<?xml version="1.0" encoding="utf-8"?>
<!-- Generator: Adobe Illustrator 16.0.0, SVG Export Plug-In . SVG Version: 6.00 Build 0)  -->
<!DOCTYPE svg PUBLIC "-//W3C//DTD SVG 1.0//EN" "http://www.w3.org/TR/2001/REC-SVG-20010904/DTD/svg10.dtd">
<svg version="1.0" id="Layer_1" xmlns="http://www.w3.org/2000/svg" xmlns:xlink="http://www.w3.org/1999/xlink" x="0px" y="0px"
	 width="506.93px" height="379.509px" viewBox="0 0 506.93 379.509" enable-background="new 0 0 506.93 379.509"
	 xml:space="preserve">
<g>
	<path fill-rule="evenodd" clip-rule="evenodd" fill="#FFFFFF" d="M133.219,1.048c4.091-0.428,6.989-0.99,9.889-0.996
		c31.638-0.066,63.275-0.068,94.914-0.01c2.92,0.005,5.838,0.542,8.137,0.771c3.043,3.623,1.994,7.094,2.005,10.293
		c0.087,26.643,0.049,53.285,0.049,79.928c0.001,91.917,0.003,183.834,0.004,275.751c0,3.299,0,6.598,0,9.155
		c-3.614,3.97-7.515,2.813-11.031,2.825c-27.308,0.089-54.617,0.043-81.926,0.044c-4.995,0.001-9.992,0.11-14.985,0.003
		c-1.912-0.041-3.813-0.549-6.099-0.903c-0.439-2.192-1.009-4.062-1.147-5.962c-0.193-2.65-0.072-5.325-0.072-7.989
		c-0.001-116.562-0.003-233.123,0.01-349.685C132.965,10.325,133.112,6.378,133.219,1.048z M153.167,336.145
		c4.756,1.497,9.087,1.026,13.294,0.848c4.46-0.19,9.227,1.41,13.825-1.775c-0.72-9.121,1.02-18.349-1.091-27.942
		c-8.814-0.322-17.251-1.184-25.999,0.684C152.496,317.628,152.436,326.757,153.167,336.145z M179.953,272.767
		c0.164-10.403,0.998-19.564-0.637-29.428c-8.799-0.16-17.197-0.85-25.399,0.266c-1.88,11.407-1.636,22.65,0.498,29.162
		C162.568,272.767,170.754,272.767,179.953,272.767z M152.865,81.527c9.806-0.579,18.299,0.921,27.35-1.159
		c-0.146-9.612,0.377-18.755-0.411-28.328c-9.162-0.949-17.568-0.804-26.32-0.174C152.123,61.787,152.83,70.925,152.865,81.527z
		 M179.75,115.854c-9.352-0.549-17.787-1.265-26.719,0.506c-0.413,9.631-0.573,18.776-0.024,28.358
		c9.199,1.075,17.634,1.042,26.888,0.063C180.383,135.258,180.542,126.104,179.75,115.854z M179.761,179.687
		c-9.452-0.417-17.881-1.283-26.536,0.594c-0.752,9.694-0.992,18.835,0.056,28.409c8.975,1.026,17.39,1.079,26.326-0.041
		C180.681,199.071,180.368,189.931,179.761,179.687z M202.203,51.521c0.067,10.707-0.629,19.897,0.367,29.569
		c8.986,0.409,17.132,0.629,25.123-0.02c1.885-11.729,1.603-22.417-0.779-29.499C219.195,51.347,211.317,51.389,202.203,51.521z
		 M228.199,307.247c-9.205-0.023-17.385-1.348-25.984,0.898c0.122,9.597-0.76,18.78,0.69,28.491
		c8.699,0.474,16.827,1.131,25.669-0.437C228.791,326.633,229.324,317.47,228.199,307.247z M227.97,145.067
		c1.627-13.962,1.278-22.82-1.081-29.397c-8.009-0.308-16.121-0.862-24.039,0.279c-1.492,13.91-1.146,22.91,1.022,29.118
		C211.688,145.067,219.542,145.067,227.97,145.067z M228.484,180.445c-10.022-1.699-18.172-1.604-25.409,0.104
		c-1.682,10.607-1.381,21.898,0.864,28.526c8.041,0.039,16.231,1.34,24.545-0.813C228.484,198.821,228.484,189.882,228.484,180.445z
		 M202.267,243.56c-0.056,5.457-0.304,10.072-0.096,14.666c0.219,4.826-1.155,9.887,1.679,15.051c4.033,0,8.012,0.189,11.966-0.052
		c4.181-0.255,8.648,1.341,13.077-1.904c-0.439-8.945,0.725-18.161-0.961-27.912C219.56,242.931,211.685,242.888,202.267,243.56z"/>
	<path fill-rule="evenodd" clip-rule="evenodd" fill="#FFFFFF" d="M376.724,378.839c-38.38,0-75.286,0-111.907,0
		c-3.305-3.426-2.1-7.291-2.105-10.809c-0.072-47.994-0.044-95.988-0.041-143.982c0-4.99,0-9.981,0-14.441
		c6.364-10.639,105.102-135.246,111.724-140.894c1.064,1.533,2.639,2.889,2.983,4.506c0.545,2.562,0.329,5.298,0.33,7.96
		c0.016,94.988,0.031,189.978-0.014,284.966C377.691,370.063,377.109,373.98,376.724,378.839z M278.382,223.696
		c10.456,2.064,29.303,1.73,35.597-0.534c0.938-8.387,0.967-40.78-0.051-46.778c-0.081-0.474-0.916-0.819-1.785-1.547
		c-0.949,0.409-2.482,0.585-3.176,1.44c-10.063,12.419-20.054,24.897-29.962,37.44C276.785,216.528,276.412,219.774,278.382,223.696
		z M363.168,260.979c1.735-8.943,1.57-16.521-0.744-23.829c-5.66,0-11.58-0.182-17.483,0.052
		c-5.786,0.229-11.764-1.196-17.602,1.303c-0.655,7.837-1.367,15.282,0.395,22.496C335.915,263.303,356.104,263.204,363.168,260.979
		z M313.57,260.854c1.791-10.841,1.525-16.999-0.998-23.134c-14.636-1.377-27.843-0.986-34.878,1.166
		c-1.231,7.284-1.51,14.705,0.182,21.952C286.069,263.174,306.066,263.098,313.57,260.854z M327.18,185.481
		c9.106,2.163,28.768,2.09,36.537-0.001c0.888-7.322,0.973-14.775-0.023-22.107c-8.016-2.664-29.293-2.522-36.514,0.285
		C327.18,170.665,327.18,177.848,327.18,185.481z M361.273,224.918c3.597-2.609,2.926-5.447,2.998-8.037
		c0.084-2.995,0.131-6.001-0.023-8.991c-0.131-2.533-0.571-5.05-0.972-8.375c-12.151,0.219-23.631-0.56-35.524,0.441
		c-1.159,8.595-1.891,16.317,0.363,24.29c2.048,0.261,3.654,0.635,5.263,0.644C343.01,224.946,352.644,224.918,361.273,224.918z
		 M363.795,274.784c-7.106,0-13.039-0.198-18.952,0.058c-5.776,0.249-11.782-1.31-17.613,1.519
		c-0.315,7.743-1.477,15.185,1.028,23.132c6.253,0,12.19,0.191,18.11-0.054c5.783-0.24,11.761,1.188,17.427-1.154
		C363.795,290.59,363.795,283.43,363.795,274.784z M363.873,335.9c0.548-7.267,0.961-14.691-0.276-21.994
		c-8.815-1.952-28.184-1.845-36.14,0.222c-1.012,7.278-1.079,14.695,0.023,21.998C336.166,337.864,355.536,337.767,363.873,335.9z
		 M314.058,312.544c-7.15,0-13.081-0.177-18.997,0.05c-5.78,0.221-11.762-1.13-17.69,1.334c-0.277,7.915-1.639,15.362,0.854,22.502
		c12.247,1.801,29.597,1.345,35.923-0.918C314.831,328.426,314.783,321.267,314.058,312.544z M314.026,299.049
		c0.712-8.381,1.226-15.785-0.258-23.039c-10.274-1.891-28.881-1.589-36.075,0.615c-1.216,7.247-1.487,14.634,0.341,22.424
		C289.898,299.049,301.398,299.049,314.026,299.049z M362.872,110.835c-4.689-0.002-6.271,3.27-8.306,5.707
		c-4.877,5.842-9.57,11.839-14.301,17.803c-2.26,2.85-4.643,5.637-6.555,8.71c-0.881,1.417-0.766,3.454-1.107,5.235
		c11.676,1.788,24.436,1.45,30.773-0.689C364.693,137.674,364.488,118.396,362.872,110.835z"/>
	<path fill-rule="evenodd" clip-rule="evenodd" fill="#FFFFFF" d="M506.054,378.506c-9.72,1.396-106.462,1.302-114.891-0.08
		c-0.309-1.68-0.952-3.559-0.955-5.438c-0.049-35.279-0.031-70.56,0.019-105.84c0.002-1.575,0.438-3.15,0.645-4.543
		c7.97-1.558,100.962-2.008,114.58-0.592c0.416,1.619,1.293,3.443,1.297,5.27c0.068,35.612,0.043,71.226-0.002,106.838
		C506.744,375.401,506.353,376.681,506.054,378.506z M405.305,336.101c9.664,2.101,29.841,1.863,36.688-0.286
		c1.455-10.265,1.27-15.736-1.02-23.102c-5.641,0-11.584-0.239-17.5,0.066c-6.104,0.315-12.485-1.571-18.479,1.652
		C404.6,321.937,404.063,329.128,405.305,336.101z M493.29,276.496c-8.909-2.134-29.562-1.948-36.789,0.306
		c-0.507,7.321-1.46,14.755,0.785,22.774c10.54,0,20.754,0.028,30.968-0.03c1.584-0.009,3.166-0.416,5.155-0.696
		C494.518,291.108,494.835,283.729,493.29,276.496z M492.926,336.513c1.91-10.368,1.735-16.571-0.717-23.742
		c-11.504,0.326-23.279-0.838-34.868,0.589c-2.19,10.119-1.947,17.224,0.862,24.075c10.014,0,20.258,0.028,30.5-0.037
		C489.973,337.39,491.239,336.881,492.926,336.513z M442.175,276.166c-11.137-1.782-29.47-1.506-36.777,0.544
		c-1.049,7.285-1.508,14.709,0.356,22.025c11.171,1.462,28.873,1.2,36.757-0.631C442.769,291.099,443.36,283.913,442.175,276.166z"
		/>
	<path fill-rule="evenodd" clip-rule="evenodd" fill="#FFFFFF" d="M78.304,378.56c-0.48-19.704,0.15-37.963-0.37-55.849
		c-7.365-2.532-25.834-2.981-37.166-1.191c-2.494,1.953-2.002,4.757-2.01,7.361c-0.041,13.331,0.005,26.662-0.042,39.992
		c-0.011,2.916-0.274,5.831-0.413,8.597c-9.965,1.862-29.852,1.626-37.393-0.43c-0.278-1.396-0.864-2.977-0.867-4.56
		c-0.056-28.622-0.041-57.244-0.041-86.244c2.467-0.557,4.319-1.336,6.175-1.341c34.993-0.082,69.987-0.085,104.98-0.051
		c1.927,0.002,3.853,0.471,6.186,0.775c1.661,10.171,0.562,20.123,0.753,30.012c0.199,10.327,0.044,20.662,0.044,30.993
		c0,9.97,0,19.938,0,29.938c-6.704,3.897-13.483,1.698-19.933,2.061C91.964,378.974,85.681,378.615,78.304,378.56z"/>
	<path fill-rule="evenodd" clip-rule="evenodd" fill="#FFFFFF" d="M58.918,194.099c19.889,24.566,37.757,48.477,56.035,72.059
		c1.361,1.757,2.289,3.852,3.417,5.787c-1.103,1.038-1.706,1.995-2.548,2.306c-1.205,0.444-2.584,0.567-3.889,0.567
		c-35.241,0.013-70.482,0.013-105.724-0.082c-1.806-0.005-3.609-0.865-5.878-1.446c0.586-1.854,0.675-3.257,1.379-4.198
		C20.174,244.414,38.68,219.767,58.918,194.099z"/>
	<path fill-rule="evenodd" clip-rule="evenodd" fill="#FFFFFF" d="M390.609,252.185c0-8.974,0-17.174,0-25.027
		c0.673-0.56,0.915-0.792,1.188-0.979c0.266-0.181,0.563-0.451,0.846-0.452c36.223-0.137,72.446-0.258,108.67-0.348
		c1.283-0.004,2.566,0.31,4.357,0.541c2.045,8.561,0.994,17.019,0.962,24.88c-0.973,0.797-1.218,1.025-1.49,1.213
		c-0.266,0.182-0.561,0.458-0.843,0.459c-36.224,0.14-72.447,0.263-108.67,0.354C394.347,252.828,393.063,252.508,390.609,252.185z"
		/>
</g>
</svg>
