<?xml version="1.0" encoding="utf-8"?>
<!-- Generator: Adobe Illustrator 16.0.0, SVG Export Plug-In . SVG Version: 6.00 Build 0)  -->
<!DOCTYPE svg PUBLIC "-//W3C//DTD SVG 1.0//EN" "http://www.w3.org/TR/2001/REC-SVG-20010904/DTD/svg10.dtd">
<svg version="1.0" id="Layer_1" xmlns="http://www.w3.org/2000/svg" xmlns:xlink="http://www.w3.org/1999/xlink" x="0px" y="0px"
	 width="570.675px" height="244.888px" viewBox="0 0 570.675 244.888" enable-background="new 0 0 570.675 244.888"
	 xml:space="preserve">
<g>
	<path fill-rule="evenodd" clip-rule="evenodd" fill="#FFFFFF" d="M277.718,142.943c2.52,9.989,5.04,19.979,7.685,30.461
		c-6.418,2.368-13.177-0.004-20.046,1.8c-0.259,2.193-0.738,4.404-0.747,6.617c-0.064,14.997-0.029,29.995-0.026,44.993
		c0,3.645,0,7.288,0,12.229c-1.518,1.097-3.276,2.667-5.291,3.769c-6.525,3.566-13.993-0.097-15.1-7.442
		c-0.394-2.614-0.228-5.32-0.232-7.983c-0.022-14.665,0.01-29.33-0.05-43.994c-0.011-2.582-0.368-5.162-0.571-7.815
		c-1.448-0.146-2.357-0.239-4.041-0.409c-1.539,6.994-0.601,13.92-0.754,20.748c-0.157,6.996-0.043,13.998-0.045,20.997
		c-0.002,6.973,0,13.945,0,19.917c-7.823,9.352-11.396,9.604-20.103,1.671c-1.128-20.499,0.153-41.739-0.729-63.54
		c-7.229-0.326-13.747-0.619-20.94-0.943c1.674-6.402,3.11-12.139,4.675-17.84c5.284-19.252,10.615-38.49,15.923-57.734
		c0.869-3.148,2.043-6.283,0.566-11.003c-1.66,2.169-3.116,3.319-3.569,4.782c-4.039,13.027-7.868,26.119-11.828,39.172
		c-1.833,6.041-1.902,6.02-7.807,10.41c-2.703-0.527-5.864-1.145-9.466-1.848c-5.424,9.818-10.888,19.707-16.418,29.718
		c-1.396,13.69,6.16,25.704,7.621,39.387c-2.296,0.592-4.434,1.143-7.023,1.81c-2.199,8.94,0.062,18.327-1.349,27.384
		c-6.072,7.911-8.562,8.032-15.66,0.475c-1.132-8.999,0.339-18.585-2.763-28.281c-0.526,0.921-1.478,1.827-1.508,2.764
		c-0.192,5.992-0.079,11.994-0.284,17.985c-0.089,2.623-0.375,5.326-1.14,7.818c-0.955,3.111-3.412,4.83-6.729,5.103
		c-3.475,0.285-6.636-1.392-7.887-4.854c-0.879-2.435-1.197-5.158-1.301-7.771c-0.251-6.321-0.227-12.653-0.335-18.98
		c-0.005-0.307-0.214-0.609-0.554-1.521c-2.035-0.544-4.435-1.185-6.781-1.811c1.441-13.583,9.014-25.597,7.289-40.03
		c-5.174-9.343-10.627-19.189-16.202-29.254c-5.969,2.871-11.273,4.228-16.048-3.584c0-16.778,0-35.017,0-53.406
		c-1.9-0.619-3.04-0.989-3.756-1.223c-0.925,0.818-1.77,1.203-1.81,1.658c-0.292,3.295-0.574,6.604-0.577,9.908
		c-0.033,43.66-0.019,87.321-0.019,130.982c0,2.666,0.195,5.354-0.07,7.994c-0.739,7.354-5.804,12.049-12.403,11.737
		c-6.228-0.293-10.679-4.907-11.231-11.815c-0.185-2.318-0.051-4.664-0.051-6.997c-0.004-22.997-0.002-45.993-0.016-68.99
		c-0.001-2.665,0.158-5.367-0.24-7.979c-0.21-1.38-1.463-2.603-2.798-4.811c-1.31,2.177-2.546,3.388-2.755,4.755
		c-0.398,2.613-0.257,5.314-0.26,7.979c-0.023,23.33-0.024,46.66-0.047,69.99c-0.002,2.664,0.177,5.368-0.205,7.984
		c-0.818,5.604-5.439,9.631-10.917,9.89c-5.802,0.273-11.099-3.855-12.067-9.764c-0.427-2.603-0.231-5.315-0.232-7.978
		c-0.013-43.66,0.013-87.321-0.052-130.982c-0.006-4.256,0.754-8.654-1.339-13.088c-1.201,0-2.404,0-4.389,0
		c-1.049,9.209-0.428,18.162-0.535,27.072c-0.104,8.661-0.022,17.324-0.022,26.429c-5.886,8.249-5.933,18.504-7.854,28.183
		c-5.052,25.455-9.694,50.991-14.522,76.49c-0.12,0.634-0.505,1.218-0.82,1.951c-2.407,3.164-5.19,3.688-9.163,0.207
		c0.134-2.619-0.064-5.938,0.525-9.109c5.647-30.424,11.428-60.822,17.211-91.441c-0.564-2.998-1.67-6.223-1.697-9.457
		c-0.161-18.995-0.34-37.998,0.033-56.988c0.233-11.865,6.808-19.996,17.589-24.402c3.603-1.473,7.783-2.033,11.715-2.107
		c12.994-0.246,25.998-0.237,38.991,0c5.646,0.104,11.433,0.668,16.338,3.879c8.594,5.627,13.83,13.324,13.827,23.99
		c-0.004,13.998,0.027,27.996,0.042,41.994c0.003,3.306,0,6.611,0,9.124c0.708,1.048,0.853,1.506,1.064,1.538
		c1.959,0.309,3.931,0.542,6.824,0.918c4.185,6.096,8.667,12.622,13.421,19.547c9.305,2.865,18.638,2.048,27.693,0.434
		c4.777-7.211,8.983-13.559,13.147-19.844c2.993-0.436,5.528-0.804,8.293-1.205c5.076-16.436,10.044-32.638,15.109-48.809
		c0.889-2.838,1.949-5.672,3.337-8.291c4.278-8.073,10.86-12.135,20.259-11.898c11.324,0.283,22.662,0.012,33.993,0.055
		c11.806,0.043,18.622,4.545,22.961,15.52c1.83,4.629,3.047,9.502,4.517,14.271c4.309,13.982,8.605,27.969,12.643,41.097
		c-0.302,6.927-3.512,10.046-9.354,10.64c-4.579-1.832-7.066-5.268-8.297-10.004c-0.878-3.378-2.399-6.589-3.633-9.875l-0.132-0.318
		c-2.037-11.749-7.113-27.755-10.91-34.007c-0.982,0.612-1.959,1.222-3.145,1.96c2.985,10.824,5.814,21.346,8.807,31.819
		c1.439,5.038,3.187,9.987,4.794,14.978c-0.098,0.614,0.033,1.176,0.392,1.684C276.813,139.769,277.265,141.355,277.718,142.943z"/>
	<path fill-rule="evenodd" clip-rule="evenodd" fill="#FFFFFF" d="M554.523,136.526c0-8.571,0.077-17.877-0.021-27.181
		c-0.094-8.909,0.499-17.86-0.541-27.024c-1.91-0.199-3.11-0.324-4.163-0.434c-2.573,3.655-1.601,7.441-1.606,11.003
		c-0.069,43.981-0.038,87.962-0.046,131.944c-0.001,2.997,0.165,6.029-0.216,8.984c-0.734,5.696-5.175,9.73-10.686,10.128
		c-5.913,0.426-11.05-3.388-12.242-9.489c-0.504-2.578-0.325-5.304-0.327-7.963c-0.023-23.656,0.013-47.313-0.056-70.97
		c-0.011-3.491,0.758-7.229-2.174-11.257c-1.468,1.278-3.256,2.07-3.45,3.15c-0.524,2.916-0.468,5.953-0.472,8.941
		c-0.028,23.324-0.009,46.647-0.029,69.971c-0.002,2.661,0.122,5.368-0.305,7.974c-0.858,5.252-5.021,9.026-10.103,9.6
		c-5.553,0.627-10.693-2.419-12.223-8.021c-0.942-3.454-1.053-7.212-1.058-10.833c-0.059-43.315-0.008-86.631-0.047-129.945
		c-0.004-4.271,0.538-8.631-1.024-13.146c-1.413,0.141-2.619,0.26-4.648,0.461c-0.859,9.483-0.342,18.758-0.438,27.998
		c-0.093,8.973-0.02,17.947-0.02,26.135c-1.161,1.638-1.58,2.645-2.329,3.221c-6.19,4.77-12.871,2.304-13.979-5.179
		c-0.291-1.962-0.165-3.989-0.166-5.987c-0.013-15.993-0.157-31.988,0.08-47.979c0.068-4.584,0.544-9.405,2.071-13.676
		c3.38-9.45,10.337-15.332,20.368-17.105c3.262-0.576,6.608-0.889,9.921-0.924c11.327-0.117,22.657-0.146,33.984-0.015
		c3.642,0.042,7.336,0.388,10.903,1.104c11.764,2.366,20.845,12.649,21.025,24.653c0.312,20.647,0.087,41.302,0.087,61.583
		C564.81,144.364,561.714,144.494,554.523,136.526z"/>
	<path fill-rule="evenodd" clip-rule="evenodd" fill="#FFFFFF" d="M314.074,174.14c7.618-29.016,14.872-56.623,22.056-84.25
		c0.098-0.375-0.694-0.982-1.605-2.188c-1.104,1.743-2.416,3.104-2.919,4.72c-3.262,10.475-6.333,21.01-9.502,31.515
		c-1.152,3.819-2.15,7.714-3.668,11.388c-2.13,5.156-5.865,7.272-9.999,6.219c-4.529-1.154-6.938-5.351-6.22-11.01
		c0.166-1.307,0.57-2.594,0.96-3.86c4.989-16.208,9.916-32.438,15.067-48.595c0.993-3.114,2.542-6.188,4.437-8.852
		c4.074-5.729,9.566-8.963,16.934-8.847c11.655,0.184,23.315,0.021,34.973,0.049c12.637,0.03,19.691,4.927,23.907,16.983
		c2.304,6.589,4.128,13.344,6.181,20.021c2.737,8.899,5.517,17.786,8.209,26.698c0.67,2.219,1.251,4.493,1.555,6.784
		c0.257,1.942,0.053,3.944,0.053,5.409c-7.722,7.867-13.319,7.049-16.461-2.413c-4.294-12.935-7.905-26.094-11.922-39.122
		c-0.718-2.328-1.991-4.486-3.162-7.063c-3.397,2.2-2.455,4.5-1.873,6.625c3.336,12.187,6.707,24.364,10.09,36.537
		c3.472,12.491,6.991,24.968,10.435,37.466c0.434,1.574,0.534,3.239,0.837,5.166c-6.31,1.971-12.712,0.316-19.512,1.447
		c-0.301,2.195-0.848,4.372-0.859,6.552c-0.08,15.655-0.044,31.31-0.063,46.965c-0.002,2.329,0.176,4.705-0.211,6.978
		c-0.83,4.873-4.872,8.377-9.61,8.719c-4.756,0.344-9.11-2.5-10.478-7.483c-0.775-2.827-0.848-5.904-0.865-8.871
		c-0.087-15.321-0.022-30.644-0.097-45.966c-0.012-2.455,0.73-5.271-2.581-7.592c-0.752,1.189-1.817,2.113-1.876,3.098
		c-0.26,4.314-0.281,8.646-0.293,12.973c-0.037,12.323-0.022,24.647-0.041,36.972c-0.003,2.33,0.151,4.69-0.152,6.985
		c-0.781,5.915-5.294,9.999-10.66,9.904c-5.417-0.096-9.64-4.171-10.343-10.246c-0.267-2.302-0.08-4.657-0.081-6.989
		c-0.01-14.322,0.017-28.646-0.045-42.968c-0.012-2.891-0.348-5.78-0.569-9.199C327.301,174.573,321.089,174.37,314.074,174.14z"/>
	<path fill-rule="evenodd" clip-rule="evenodd" fill="#FFFFFF" d="M424.325,238.316c0-21.514,0-43.129,0-66.761
		c-1.958,3.031-3.2,4.334-3.729,5.881c-2.456,7.187-4.713,14.441-6.882,21.176c-5.135,1.317-5.135,1.317-9.522-1.115
		c0.252-12.016,6.939-22.275,11.141-33.237c3.989-10.403,4.786-10.905,11.992-16.416c9.891,0,20.526-0.099,31.158,0.038
		c6.076,0.077,9.79,3.742,11.938,9.064c4.598,11.387,9.062,22.828,13.438,33.889c-1.049,4.564-3.244,6.99-8.126,6.65
		c-5.991-6.247-5.587-15.865-11.711-23.888c-0.268,4.083-0.598,6.872-0.608,9.661c-0.055,14.979,0.03,29.959-0.074,44.938
		c-0.027,3.948-0.556,7.893-0.812,11.271c-7.785,6.523-9.503,6.385-15.834-0.74c-2.154-10.397,1.143-21.167-1.913-31.543
		c-0.045-0.152-0.583-0.161-1.104-0.289c-2.074,0.405-1.781,2.328-1.815,3.777c-0.125,5.323-0.066,10.65-0.082,15.977
		c-0.007,2.33,0.047,4.664-0.055,6.989c-0.186,4.214-1.416,8.073-5.597,9.822C431.395,245.439,427.769,243.441,424.325,238.316z"/>
	<path fill-rule="evenodd" clip-rule="evenodd" fill="#FFFFFF" d="M64.841,0.058C76.444-0.15,86.012,9.036,86.118,20.485
		c0.107,11.596-9.022,21.076-20.485,21.271c-11.5,0.196-20.995-8.947-21.287-20.496C44.056,9.774,53.25,0.265,64.841,0.058z"/>
	<path fill-rule="evenodd" clip-rule="evenodd" fill="#FFFFFF" d="M542.403,21.299c-0.207,11.557-9.68,20.669-21.239,20.431
		c-11.506-0.236-20.712-9.797-20.479-21.269c0.233-11.491,9.765-20.64,21.313-20.458C533.537,0.185,542.611,9.654,542.403,21.299z"
		/>
	<path fill-rule="evenodd" clip-rule="evenodd" fill="#FFFFFF" d="M358.94,12.026c10.927,0.234,19.356,8.986,19.211,19.95
		c-0.142,10.806-8.972,19.597-19.729,19.645c-10.937,0.048-20.12-9.577-19.702-20.651C339.132,20.026,347.925,11.79,358.94,12.026z"
		/>
	<path fill-rule="evenodd" clip-rule="evenodd" fill="#FFFFFF" d="M260.627,31.619c0.991,9.014-6.636,19.552-19.059,19.995
		c-10.736,0.383-19.792-8.426-20.064-19.203c-0.287-11.382,8.526-20.313,19.757-20.49C250.459,11.774,261.574,20.388,260.627,31.619
		z"/>
	<path fill-rule="evenodd" clip-rule="evenodd" fill="#FFFFFF" d="M166.271,124.599c0.158,8.971-7.201,16.752-16.117,17.041
		c-8.701,0.283-16.752-7.424-16.985-16.257c-0.234-8.905,7.176-16.641,16.216-16.929
		C158.312,108.171,166.113,115.629,166.271,124.599z"/>
	<path fill-rule="evenodd" clip-rule="evenodd" fill="#FFFFFF" d="M427.07,125.313c2.698-12.073,8.896-17.752,18.355-16.816
		c8.106,0.801,14.694,7.996,14.817,16.186c0.124,8.174-6.036,15.461-14.216,16.818C436.946,143.009,430.125,137.184,427.07,125.313z
		"/>
</g>
</svg>
