<?xml version="1.0" encoding="utf-8"?>
<!-- Generator: Adobe Illustrator 16.0.0, SVG Export Plug-In . SVG Version: 6.00 Build 0)  -->
<!DOCTYPE svg PUBLIC "-//W3C//DTD SVG 1.0//EN" "http://www.w3.org/TR/2001/REC-SVG-20010904/DTD/svg10.dtd">
<svg version="1.0" id="Layer_1" xmlns="http://www.w3.org/2000/svg" xmlns:xlink="http://www.w3.org/1999/xlink" x="0px" y="0px"
	 width="366.977px" height="359.575px" viewBox="0 0 366.977 359.575" enable-background="new 0 0 366.977 359.575"
	 xml:space="preserve">
<g>
	<path fill-rule="evenodd" clip-rule="evenodd" fill="#FFFFFF" d="M31.921,122.93c-8.739-6.764-15.984-14.552-17.919-25.67
		c-1.201-6.907-1.383-13.876,1.086-20.697c6.564-18.142,20.087-26.494,39.144-27.378c0.991-3.716,1.883-7.19,2.842-10.646
		c7.165-25.786,33.688-42.12,59.392-37.479c28.379,5.124,47.147,29.348,44.588,57.208c-0.538,5.865-2.422,11.605-3.823,18.034
		c2.968,1.264,5.939,2.489,8.88,3.786c17.155,7.568,28.82,20.201,33.905,38.271c11.577,41.139-20.471,75.912-55.608,75.859
		c-26.638-0.041-53.276-0.188-79.915-0.186c-21.464,0.002-37.555-14.626-41.862-32.138c-2.764-11.234-0.965-21.792,4.744-31.747
		C28.682,127.866,30.174,125.69,31.921,122.93z"/>
	<path fill-rule="evenodd" clip-rule="evenodd" fill="#FFFFFF" d="M366.415,289.738c0.617,9.084,0.933,16.603-0.174,23.961
		c-3.572,2.835-7.384,1.799-10.91,1.805c-46.647,0.081-93.296,0.063-139.944,0.066c-67.307,0.004-134.613,0.01-201.92-0.002
		c-3.928-0.001-7.855-0.161-12.072-0.254c-2.226-8.535-1.196-16.336-0.883-24.703c2.677-0.34,4.885-0.843,7.097-0.86
		c9.995-0.077,19.992-0.009,29.988-0.009c105.625,0,211.25-0.002,316.875-0.004C358.098,289.738,361.724,289.738,366.415,289.738z"
		/>
	<path fill-rule="evenodd" clip-rule="evenodd" fill="#FFFFFF" d="M366.46,334.484c0.552,8.338,0.922,15.856-0.288,23.867
		c-2.107,0.418-3.97,0.962-5.864,1.118c-2.318,0.191-4.662,0.063-6.995,0.063c-113.308-0.001-226.616,0-339.924-0.013
		c-3.929,0-7.858-0.127-12.054-0.199c-2.134-8.526-1.064-16.347-0.897-23.491c0.801-0.913,0.979-1.213,1.241-1.388
		c0.268-0.179,0.618-0.332,0.933-0.333c119.626-0.121,239.252-0.229,358.878-0.313C362.792,333.797,364.096,334.146,366.46,334.484z
		"/>
	<path fill-rule="evenodd" clip-rule="evenodd" fill="#FFFFFF" d="M295.406,169.811c-2.788-2.077-5.433-4-8.026-5.989
		c-5.865-4.501-12.29-7.881-19.451-9.797c-10.76-2.88-15.475-2.569-31.043,2.001c-0.568-0.308-1.396-0.477-1.651-0.953
		c-0.589-1.098-0.898-2.344-1.23-3.275c13.544-18.674,33.146-19.998,62.061-4.314c2.903-1.659,6.018-3.472,9.162-5.23
		c15.7-8.787,36.312-8.932,52.155,8.143c-0.146,1.479-0.326,3.309-0.554,5.629c-7.854-0.432-14.251-4.841-21.778-3.917
		c-7.338,0.901-14.559,1.964-20.979,5.65C307.801,161.357,301.892,165.586,295.406,169.811z"/>
	<path fill-rule="evenodd" clip-rule="evenodd" fill="#FFFFFF" d="M248.66,72.762c-15.373-11.258-31.253-17.767-49.869-8.069
		c-1.012-1.919-1.729-3.282-2.756-5.229c6.191-8.301,14.052-12.804,24.308-13.754c9.757-0.903,18.27,2.562,26.732,6.916
		c3.916-2.25,7.541-4.603,11.391-6.496c13.235-6.507,25.776-5.157,37.498,3.765c0.784,0.598,1.474,1.351,2.092,2.123
		c0.401,0.503,0.593,1.174,1.071,2.17c-0.325,0.896-0.755,2.077-1.419,3.903c-8.912-2.067-17.609-3.316-26.459-0.357
		C262.502,60.658,255.782,66.545,248.66,72.762z"/>
	<path fill-rule="evenodd" clip-rule="evenodd" fill="#FFFFFF" d="M100.13,208.807c8.192,0,15.742,0,23.641,0
		c2.549,6.07,1.076,12.415,1.314,18.576c0.245,6.309,0.09,12.635,0.04,18.953c-0.049,6.246-0.185,12.492-0.287,19.085
		c-8.57,1.525-16.347,0.729-23.943,0.616C99.033,258.264,98.575,222.526,100.13,208.807z"/>
	<path fill-rule="evenodd" clip-rule="evenodd" fill="#FFFFFF" d="M272.06,10.986c-0.178-2.433-0.29-3.973-0.384-5.269
		c13.31-9.21,22.12-7.59,40.023,7.015c22.785-2.37,30.508,0.757,37.938,15.771c-0.625,1.045-1.409,2.354-2.42,4.044
		c-6.712-2.884-12.264-7.968-19.639-6.975c-6.821,0.919-13.592,2.219-20.698,3.403c-4.637-4.386-9.387-9.428-14.713-13.763
		C286.771,10.822,279.983,10.558,272.06,10.986z"/>
</g>
</svg>
