<?xml version="1.0" encoding="utf-8"?>
<!-- Generator: Adobe Illustrator 16.0.0, SVG Export Plug-In . SVG Version: 6.00 Build 0)  -->
<!DOCTYPE svg PUBLIC "-//W3C//DTD SVG 1.0//EN" "http://www.w3.org/TR/2001/REC-SVG-20010904/DTD/svg10.dtd">
<svg version="1.0" id="Layer_1" xmlns="http://www.w3.org/2000/svg" xmlns:xlink="http://www.w3.org/1999/xlink" x="0px" y="0px"
	 width="404.61px" height="342.401px" viewBox="0 0 404.61 342.401" enable-background="new 0 0 404.61 342.401"
	 xml:space="preserve">
<g>
	<path fill-rule="evenodd" clip-rule="evenodd" fill="#FFFFFF" d="M404.61,250.686c-4.35,5.488-8.396,11.146-13.001,16.308
		c-22.165,24.843-47.435,45.772-77.715,60.101c-23.891,11.303-49.026,16.854-75.543,14.934
		c-19.092-1.383-37.259-6.667-54.944-13.754c-29.587-11.854-56.433-28.401-81.647-47.74c-1.836-1.408-3.793-2.656-6.22-4.343
		c-1.595,2.327-3.093,4.374-4.447,6.511c-13.639,21.521-30.873,39.14-54.163,50.283c-8.782,4.202-18.058,6.762-27.553,8.566
		c-2.488,0.474-5.143,0.072-7.902,0.072c-0.5-4.706,2.125-7.586,3.799-10.664c6.374-11.721,11.838-23.803,16.211-36.427
		c11.166-32.231,10.131-64.139-2.731-95.549c-4.779-11.673-10.849-22.818-16.317-34.21c-0.56-1.165-1.036-2.37-1.633-3.745
		c1.164-0.985,2.14-1.811,3.059-2.588c42.585,5.335,70.19,31.187,91.505,66.152c2.494-1.771,4.394-3.048,6.216-4.425
		c25.617-19.357,52.827-35.96,82.675-48.047c17.364-7.033,35.361-11.829,53.952-13.592c15.646-1.482,31.212,0.455,46.438,4.559
		c31.194,8.408,58.015,24.6,81.982,45.932c12.968,11.542,24.955,23.982,35.529,37.762
		C402.945,247.805,403.543,248.973,404.61,250.686z M295.1,259.952c13.559,0.188,25.513-10.989,25.092-24.242
		c-0.521-16.431-11.248-24.351-24.305-25.25c-12.997-0.896-24.836,11.042-25.24,24.454
		C270.248,248.107,281.633,259.764,295.1,259.952z"/>
	<path fill-rule="evenodd" clip-rule="evenodd" fill="#FFFFFF" d="M200.586,61.931c3.559,2.728,6.441,4.966,9.354,7.163
		c20.723,15.631,43.375,16.961,67.2,8.881c10.777-3.654,20.56-9.304,29.928-16.412c2.139,1.537,4.059,2.725,5.761,4.17
		c14.816,12.588,31.748,19.229,51.352,18.184c10.057-0.535,19.619-3.282,28.914-7.063c2.067-0.842,4.23-1.447,7.127-2.423
		c0,7.325,0,13.875,0,21.149c-16.438,15.242-35.523,20.403-57.586,13.345c-10.651-3.407-19.727-9.509-28.227-16.584
		c-1.519-1.265-3.018-2.554-4.998-4.232c-36.093,32.46-72.35,27.49-108.908-0.105c-1.827,1.302-3.671,2.607-5.505,3.928
		c-10.919,7.854-22.641,13.997-35.927,16.765c-21.06,4.387-40.312,0.541-57.472-12.712c-3.151-2.434-6.267-4.915-9.812-7.698
		c-1.866,1.479-3.637,2.835-5.357,4.252c-9.332,7.683-19.343,14.143-31.171,17.329c-20.804,5.605-38.671,0.086-54.493-14.184
		c-0.611-6.96-1.422-13.776,0.719-21.5c15.774,7.175,31.774,11.742,48.655,9.381C66.725,81.244,80.838,73.19,93.04,61.424
		c3.85,2.469,7.128,4.658,10.489,6.713c14.433,8.825,29.676,14.55,47.015,14.532c14.231-0.014,26.874-3.882,38.358-12.001
		C192.68,67.998,196.317,65.132,200.586,61.931z"/>
	<path fill-rule="evenodd" clip-rule="evenodd" fill="#FFFFFF" d="M91.828,26.421c-5.243,4.102-9.545,7.783-14.163,11.014
		c-9.966,6.971-20.917,11.567-33.157,12.634c-16.992,1.48-31.225-4.649-43.898-15.984c-0.586-6.805-1.202-13.656,0.494-21.355
		c3.854,1.448,7.224,2.714,10.592,3.981c23.557,8.865,46.268,7.825,67.713-6.113C84.109,7.541,88.343,3.767,93.209,0
		c1.634,0.967,3.357,1.828,4.908,2.931c14.959,10.634,31.566,17.212,49.817,18.643c9.626,0.755,19.339-1.104,28.091-5.456
		c6.501-3.233,12.499-7.495,18.644-11.42c1.914-1.223,3.572-2.843,5.719-4.581c3.864,2.925,7.565,5.651,11.187,8.478
		c11.187,8.732,24.281,12.673,38.051,12.989c11.631,0.268,23.157-2.502,33.71-7.771c7.116-3.553,13.844-7.883,20.752-11.854
		c1.121-0.645,2.276-1.229,3.313-1.786c28.488,23.843,52.03,29.064,92.237,12.845c2.291,6.824,0.729,13.699,0.941,20.241
		c-18.434,19.218-43.946,20.584-63.603,11.909c-10.171-4.489-18.85-11.125-27.355-18.756c-3.54,2.739-6.91,5.34-10.273,7.949
		c-11.656,9.04-24.995,14.227-39.573,14.745c-10.948,0.391-21.75-2.072-31.977-6.537c-9.519-4.155-18.336-9.398-26.762-16.369
		c-1.899,1.225-3.841,2.33-5.623,3.65c-8.073,5.982-16.799,10.733-26.216,14.247c-26.473,9.878-50.208,4.516-71.799-12.837
		C95.6,29.815,93.91,28.236,91.828,26.421z"/>
</g>
</svg>
