<?xml version="1.0" encoding="utf-8"?>
<!-- Generator: Adobe Illustrator 16.0.0, SVG Export Plug-In . SVG Version: 6.00 Build 0)  -->
<!DOCTYPE svg PUBLIC "-//W3C//DTD SVG 1.0//EN" "http://www.w3.org/TR/2001/REC-SVG-20010904/DTD/svg10.dtd">
<svg version="1.0" id="Layer_1" xmlns="http://www.w3.org/2000/svg" xmlns:xlink="http://www.w3.org/1999/xlink" x="0px" y="0px"
	 width="551.653px" height="282.225px" viewBox="0 0 551.653 282.225" enable-background="new 0 0 551.653 282.225"
	 xml:space="preserve">
<g>
	<path fill-rule="evenodd" clip-rule="evenodd" fill="#FFFFFF" d="M551.653,141.241C415.343,331.321,131.093,327.006,0,141.539
		c9.618-20.325,51.416-61.28,87.18-85.15c50.159-33.478,105.495-51.868,165.585-55.65C396.572-8.314,500.622,67.419,551.653,141.241
		z M302.986,152.038c-3.244,0.364-6.854,0.251-6.802,5.026c6.411,3.297,7.288,3.437,10.501,1.323
		c0.209-0.789,0.533-2.006,0.888-3.34c1.365-0.534,2.892-1.131,4.102-1.605c5.46-4.996,5.092-11.514,5.33-17.398
		c3.914-3.59,7.428-3.641,11.62,0.279c1.668,4.192,3.73,9.088,5.564,14.067c1.76,4.778,4.266,8.95,8.121,12.372
		c5.862,5.205,7.964,6.404,13.62,6.862c0.442-6.122-5.236-9.933-5.876-16.208c0.189-4.165,1.688-8.422,5.271-11.79
		c5.501-2.21,11.912-2.688,15.434-8.773c-0.321-4.522-5.503-8.742-1.014-14.425c3.108,2.083,6.277,4.206,9.007,6.036
		c3.501,0.276,5.906-0.699,7.523-3.103c2.037-3.027,1.543-6.229,0.637-9.583c-4.78-17.695-13.31-33.334-25.558-46.927
		c-35.43-39.323-91.607-49.08-137.822-25.553c-1.288,0.655-2.288,1.875-4.049,3.359c11.174,1.897,22.316-3.398,31.318,3.717
		c0.62,4.188,1.098,7.422,1.437,9.711c2.701,4.152,7.44,5.151,8.374,9.869c-5.274,4.642-11.457,7.829-17.82,10.646
		c-1.282,0.568-3.03,0.082-4.736,0.082c0.327-5.002,4.445-5.167,6.863-7.109c1.587-1.274,4.701-1.279,3.848-4.887
		c-1.964-0.116-3.983-0.561-5.905-0.296c-10.535,1.451-21.103,2.775-31.539,4.771c-5.172,0.988-10.156,3.229-12.705,9.527
		c5.584,6.595,12.767,8.413,20.694,7.767c3.146-2.931,5.808-5.411,8.133-7.577c2.778-0.925,4.777-0.769,6.878,1.574
		c-4.131,3.736-7.769,7.027-11.996,10.851c-3.297-0.47-6.886-0.765-10.375-1.524c-6.484-1.411-12.538-0.766-18.188,2.869
		c-2.496,1.606-5.047,3.127-7.434,4.601c-0.957,3.264,0.315,7.371-5.312,8.601c-4.092-0.897-9.342-2.727-14.475,0.973
		c-1.157,3.87-1.906,7.625,3.292,9.953c8.983-3.249,17.954-6.494,27.687-10.014c0.897,0.743,2.674,1.736,3.772,3.229
		c1.763,2.396,3.038,5.146,4.621,7.682c0.243,0.39,1.025,0.443,1.624,0.678c0.249-2.186,0.493-4.324,0.829-7.275
		c2.693,2.306,4.667,3.996,6.738,5.769c2.584,0,5.134,0,8.318,0c0.183,2.616,0.332,4.752,0.448,6.429
		c-5.274,6.09-11.147,6.809-17.702,4.482c-3.136-1.112-6.209-2.406-9.365-3.455c-5.359-1.779-10.703-3.657-16.166-5.054
		c-3.859-0.986-7.927-1.465-12.325,1.75c-1.807,2.454-4.164,5.655-6.683,9.076c-2.391,19.489,0.708,38.182,8.035,55.864
		c7.881,3.618,12.126-4.223,18.785-4.181c4.755,2.663,8.794,6.349,10.413,12.247c1.708,0,3.279,0,4.708,0
		c2.157,5.469,4.175,10.587,6.193,15.705c2.569,6.003,0.565,13.24,5.466,18.995c7.983,0.8,14.887-1.46,18.865-8.403
		c4.555-7.952,7.937-16.57,11.954-24.838c1.988-4.094,1.659-8.41,1.781-12.722c0.127-4.524,1.207-8.532,6.215-10.08
		c1.434,0.876,1.292,2.001,0.601,3.3c-3.386,6.371-3.287,13.48-4.169,20.366c-0.181,1.41-0.581,3.437,2.771,3.896
		c3.553-8.212,6.6-16.819,8.795-25.739c0.093-0.379-0.696-0.977-1.05-1.439c-2.344-1.682-4.826,2.674-7.11-0.226
		c1.504-4.296,7.223-7.429,3.323-13.608c-1.554-0.915-3.568-2.035-5.518-3.259c-6.252-3.923-9.859-9.722-11.479-16.78
		c-0.292-1.271,0.307-2.748,0.728-5.85c5.735,6.003,10.248,10.727,14.473,15.148c11.007,1.405,15.379-1.453,16.573-11.051
		c-2.675-2.767-5.65-5.848-8.629-8.924c-2.77-2.86-5.684-5.6-8.226-8.648c-0.733-0.879-0.404-2.646-0.68-5.023
		c7.56,4.502,14.063,8.375,20.667,12.308c1.389,3.402,2.759,6.758,4.067,9.963c3.216,3.475,7.249,4.736,11.38,6.167
		c4.869,1.688,10.473,2.389,13.559,7.449C303.666,151.085,303.287,151.528,302.986,152.038z M379.413,171.014
		c-5.524,2.835-9.482,5.366-13.791,6.942c-4.644,1.699-9.634,2.433-14.436,3.727c-3.521,0.949-7.081,1.877-10.449,3.246
		c-8.37,3.402-14.022,11.954-12.819,20.466c0.818,5.789,1.969,11.722,5.484,17.328c3.167-1.314,6.15-2.552,9.283-3.853
		c1.021,1.072,2.075,2.181,2.976,3.127c2.119-0.262,4.059-0.792,5.948-0.651c1.881,0.141,3.713,0.956,5.247,1.386
		c12.278-11.456,21.217-25.41,26.681-41.668C382.379,178.241,381.025,174.942,379.413,171.014z M310.89,243.451
		c-4.089-1.152-8.202-2.314-12.317-3.47c-7.673-2.156-15.255-4.76-23.045-6.343c-9.048-1.838-17.988-0.672-25.882,4.508
		c-4.469,2.933-8.559,6.494-6.965,12.899c1.042,0.605,1.834,1.322,2.751,1.561c34.513,8.966,66.565,3.465,96.099-16.518
		c0.888-0.601,1.392-1.771,2.186-2.825C332.381,228.913,329.612,229.768,310.89,243.451z M382.205,127.151
		c0.303,2.296,0.991,4.203,0.674,5.925c-0.404,2.198-1.764,4.202-2.46,6.37c-2.797,8.712,0.291,17.945,8.547,23.795
		c1.533-9.902,2.555-19.297,1.187-28.804C389.582,130.483,386.924,128.118,382.205,127.151z M169.661,97.219
		c0.558,0.562,1.116,1.123,1.674,1.685c8.362-3.421,12.708-12.317,20.788-16.16c0.678-0.322,0.919-1.563,1.522-2.67
		c-4.971-3.522-9.539-1.983-14.704,0.216c-1.416,2.205-3.17,4.619-4.583,7.219C172.642,90.663,171.213,93.975,169.661,97.219z
		 M191.83,59.296c-2.806,4.588-7.386,6.97-7.535,12.441c6.839,2.689,10.847-1.288,15.152-5.503c0-2.09,0-4.289,0-6.938
		C196.794,59.296,194.598,59.296,191.83,59.296z M362.647,162.945c-1.13,1.272-2.485,2.796-3.944,4.437
		c7.17,4.146,7.17,4.146,11.366,0.676C369.021,164.798,366.505,163.528,362.647,162.945z M357.479,150.642
		c-1.188,1.5-1.916,2.42-2.673,3.377c0.889,1.695,1.62,3.09,2.591,4.942c2.098-0.282,4.047-0.545,7.548-1.017
		C361.799,154.868,359.813,152.927,357.479,150.642z"/>
	<path fill-rule="evenodd" clip-rule="evenodd" fill="#FFFFFF" d="M304.124,150.71c0.618,0.446,1.235,0.893,1.853,1.339
		c-0.157,0.341-0.314,0.681-0.471,1.021c-0.84-0.344-1.68-0.688-2.52-1.032C303.287,151.528,303.666,151.085,304.124,150.71z"/>
</g>
</svg>
