<?xml version="1.0" encoding="utf-8"?>
<!-- Generator: Adobe Illustrator 16.0.0, SVG Export Plug-In . SVG Version: 6.00 Build 0)  -->
<!DOCTYPE svg PUBLIC "-//W3C//DTD SVG 1.0//EN" "http://www.w3.org/TR/2001/REC-SVG-20010904/DTD/svg10.dtd">
<svg version="1.0" id="Layer_1" xmlns="http://www.w3.org/2000/svg" xmlns:xlink="http://www.w3.org/1999/xlink" x="0px" y="0px"
	 width="348.974px" height="326.922px" viewBox="0 0 348.974 326.922" enable-background="new 0 0 348.974 326.922"
	 xml:space="preserve">
<g>
	<path fill-rule="evenodd" clip-rule="evenodd" fill="#FFFFFF" d="M289.013,80.695c3.136,2.346,6.271,4.691,10.41,7.789
		c-4.283,0.391-7.165,0.653-10.431,0.951c-2.984,9.438,3.579,17.978,2.646,28.048c-4.891-3.69-4.78-8.509-5.748-12.763
		c-1.023-4.5-1.74-9.07-2.579-13.547c-15.799,0.749-26.837,9.15-31.436,23.5c-2.696,8.412-2.32,17.092-2.7,25.736
		c-0.334,7.633-0.448,15.378-1.87,22.843c-3.69,19.37-14.624,34.038-31.148,44.547c-14.263,9.071-30.053,14.126-46.58,17.097
		c-1.937,0.349-3.885,0.632-5.665,0.918c-2.109,6.762-2.43,21.606-0.686,33.467c30.641,2.361,61.342,3.049,92.545-2.879
		c0.305-6.65,0.604-13.179,0.858-18.754c2.83-3.654,5.932-3.702,8.895-3.717c16.666-0.085,33.333-0.138,49.999-0.012
		c2.869,0.021,5.732,0.953,9.066,1.547c0.402,3.238,0.985,5.806,0.998,8.375c0.083,16.333,0.034,32.667,0.043,49
		c0.002,3.355,0.159,6.743-4.332,9.766c-19.4,0.3-40,0.426-60.603-0.162c-1.157-0.033-2.283-1.173-4.063-2.146
		c-0.251-6.396-0.509-12.951-0.795-20.23c-8.215-1.01-16.049-1.965-23.881-2.934c-18.274-2.263-36.588-0.219-54.881-0.471
		c-7.661-0.106-15.328,0.291-22.992,0.439c-36.981,0.713-73.964,1.396-110.943,2.154c-5.618,0.115-11.229,0.568-17.153,0.881
		c-2.434-7.612-1.063-14.768-1.066-22.71c35.295-1.589,70.049,2.62,105.271,1.175c0.828-10.756,0.815-20.903,0.044-31.205
		c-7.618-1.523-14.763-2.854-21.861-4.396c-9.829-2.136-19.133-5.693-27.777-10.877c-12.245-7.341-24.47-14.715-38.015-22.863
		c5.047,0.628,8.567,1.329,12.108,1.461c13.679,0.508,26.346-2.472,37.72-10.582c8.924-6.364,17.829-12.914,29.805-16.072
		c-2.24-1.191-3.622-2.311-5.186-2.699c-20.001-4.984-32.849-17.979-41.191-36.238C71.087,114.729,69,103.6,66.285,92.619
		c-2.074-8.391-4.174-16.798-6.813-25.021c-3.105-9.682-8.031-18.29-16.955-23.981c-0.404-0.258-0.416-1.131-0.751-2.143
		c23.715-2.713,45.537,2.292,65.771,14.586c9.738,5.918,18.321,13.28,26.451,21.223c7.156,6.99,14.438,13.835,23.39,18.599
		c7.429,3.953,15.136,6.72,23.664,7.145c15.331,0.763,27.734-5.685,38.944-15.28c6.074-5.199,11.891-10.735,18.262-15.537
		c4.742-3.573,9.98-6.661,15.37-9.162c8.1-3.758,15.551-2.204,21.857,4.354c2.72,2.827,5.173,6.003,8.722,8.113
		c0.936-1.001,1.59-1.703,2.244-2.404c0.505,1.379,1.032,2.75,1.506,4.139C288.336,78.387,288.66,79.545,289.013,80.695z
		 M140.66,258.789c4.194,0,7.639,0,11.553,0c0.43-10.711,0.736-20.795-0.156-31.088c-4.123,0-7.55,0-11.396,0
		C140.66,238.133,140.66,247.954,140.66,258.789z"/>
	<path fill-rule="evenodd" clip-rule="evenodd" fill="#FFFFFF" d="M254.754,210.856c2.338-0.349,5.572-1.224,8.813-1.249
		c18.309-0.138,36.62-0.017,54.93-0.105c6.689-0.033,11.757,1.914,13.239,9.032c-2.823,8.207-4.427,9.858-11.638,9.917
		c-19.641,0.161-39.282,0.059-58.924,0.038c-4.259-0.004-7.994-1.347-10.031-5.311C248.824,218.668,250.354,214.825,254.754,210.856
		z"/>
	<path fill-rule="evenodd" clip-rule="evenodd" fill="#FFFFFF" d="M327.066,309.169c1.772,2.709,3.352,5.122,4.654,7.113
		c-2.662,9.079-3.893,10.462-11.371,10.524c-19.895,0.166-39.793,0.142-59.688-0.003c-5.736-0.042-8.785-2.308-10.072-6.417
		c-1.215-3.88-0.26-6.035,5.229-11.218C278.855,309.169,302.341,309.169,327.066,309.169z"/>
	<path fill-rule="evenodd" clip-rule="evenodd" fill="#FFFFFF" d="M5.849,251.564c2.743,0,5.667,0,7.981,0
		c4.26,2.052,6.044,5.007,6.084,8.997c0.051,4.957,0.018,9.916,0.014,14.874c-0.002,3.547-1.334,6.418-5.369,9.133
		c-2.146,0.132-5.377,0.332-7.705,0.475c-4.675-1.961-6.666-4.811-6.757-8.82c-0.12-5.286-0.117-10.576-0.053-15.863
		C0.088,256.807,1.621,254.007,5.849,251.564z"/>
	<path fill-rule="evenodd" clip-rule="evenodd" fill="#FFFFFF" d="M348.856,0c1.286,17.534-8.065,26.643-24.047,24.21
		C323.563,8.039,330.887,0.47,348.856,0z"/>
	<path fill-rule="evenodd" clip-rule="evenodd" fill="#FFFFFF" d="M300.611,2.971c14.703,9.498,16.788,19.601,6.974,31.822
		C293.333,27.541,290.934,17.438,300.611,2.971z"/>
	<path fill-rule="evenodd" clip-rule="evenodd" fill="#FFFFFF" d="M289.113,55.461c-14.413-6.454-17.305-18.641-7.509-31.649
		C295.787,31.726,298.012,41.102,289.113,55.461z"/>
	<path fill-rule="evenodd" clip-rule="evenodd" fill="#FFFFFF" d="M301.139,63.917c3.723-4.113,8.697-5.594,13.908-6.712
		c6.988,0.964,12.281,4.326,15.877,10.381C318.82,77.789,310.202,76.716,301.139,63.917z"/>
	<path fill-rule="evenodd" clip-rule="evenodd" fill="#FFFFFF" d="M348.194,43.389c-10.272,12.146-18.461,12.819-29.529,2.831
		C327.573,34.253,335.842,33.294,348.194,43.389z"/>
	<path fill-rule="evenodd" clip-rule="evenodd" fill="#FFFFFF" d="M289.013,80.695c-0.353-1.15-0.677-2.309-1.065-3.447
		c-0.474-1.389-1.001-2.76-1.506-4.139c1.428-8.552,6.591-15.033,12.083-21.222c6.798-7.66,13.876-15.072,21.045-22.819
		c0.628,0.09,1.544,0.222,2.404,0.346c0.122,0.802,0.518,1.648,0.26,1.966c-3.944,4.86-7.899,9.713-12.003,14.438
		c-3.688,4.246-7.736,8.186-11.305,12.524C293.583,64.837,289.834,72.144,289.013,80.695z"/>
</g>
</svg>
