<?xml version="1.0" encoding="utf-8"?>
<!-- Generator: Adobe Illustrator 16.0.0, SVG Export Plug-In . SVG Version: 6.00 Build 0)  -->
<!DOCTYPE svg PUBLIC "-//W3C//DTD SVG 1.0//EN" "http://www.w3.org/TR/2001/REC-SVG-20010904/DTD/svg10.dtd">
<svg version="1.0" id="Layer_1" xmlns="http://www.w3.org/2000/svg" xmlns:xlink="http://www.w3.org/1999/xlink" x="0px" y="0px"
	 width="295.378px" height="398.046px" viewBox="0 0 295.378 398.046" enable-background="new 0 0 295.378 398.046"
	 xml:space="preserve">
<g>
	<path fill-rule="evenodd" clip-rule="evenodd" fill="#FFFFFF" d="M241.627,145.613c0.156,1.279,0.313,2.559,0.469,3.838
		c0.335,1.651,0.67,3.303,1.004,4.955c1.012,15.339,1.002,30.56-3.147,45.592c-12.345,44.726-40.766,73.75-84.917,87.543
		c-3.797,1.187-7.719,1.974-11.538,2.936c-2.037,6.936-2.238,24.651-0.267,35.129c11.642,0.17,23.475,0.343,35.855,0.524
		c1.117,11.964,0.629,23.135,0.358,34.878c-12.1,2.098-24.068-0.135-36.222,1.323c-2.623,5.691-0.931,11.728-1.231,17.546
		c-0.288,5.585-0.062,11.196-0.062,17.207c-6.271,1.622-11.912,0.66-17.445,0.84c-5.635,0.183-11.281,0.04-17.045,0.04
		c-2.673-6.211-1.094-12.231-1.372-18.066c-0.267-5.601-0.058-11.224-0.058-17.179c-12.75-2.194-25.069,0.427-37.793-1.661
		c-0.367-11.589-0.135-22.733-0.12-34.294c12.812-2.004,24.779-0.032,37.029-1.336c1.557-5.689,0.683-11.334,0.841-16.879
		c0.152-5.297,0.033-10.602,0.033-16.517c-3.45-0.91-6.568-1.757-9.698-2.555c-50.132-12.789-82.37-44.005-93.491-94.593
		C-11.976,127.631,33.363,64.148,96.822,51.33c33.938-6.854,65.492-0.698,94.264,18.836c1.377,0.936,2.734,1.9,4.124,2.816
		c0.265,0.176,0.634,0.191,0.954,0.281c6.141-3.803,33.009-30.441,39.021-38.899c-3.102-0.841-5.992-0.422-8.795-0.49
		c-2.996-0.073-5.996-0.017-8.995-0.017c-2.665,0-5.333,0.057-7.995-0.018c-2.929-0.082-5.854-0.285-9.351-0.465
		c-1.03-10.967-0.32-21.468-0.585-32.222c2.316-0.488,3.889-1.106,5.462-1.109c29.599-0.058,59.197-0.042,89.176-0.042
		c0.55,2.219,1.253,3.74,1.255,5.264c0.045,28.984,0.009,57.969-0.035,86.955c-0.001,0.629-0.305,1.258-0.467,1.887
		c-6.314,2.123-20.24,2.499-32.985,0.758c-0.997-10.311,0.12-20.894-0.718-32.334c-8.16,5.283-13.528,12.493-19.879,18.582
		c-6.476,6.209-12.704,12.677-19.507,19.498c8.008,11.506,13.481,23.941,17.895,36.865
		C240.316,140.189,240.972,142.901,241.627,145.613z M33.057,170.618c-1.169,46.571,38.422,88.989,88.846,88.957
		c46.504-0.029,89.598-36.97,89.185-89.892c-0.403-51.573-42.43-88.718-89.62-88.432C69.253,81.57,31.51,125.697,33.057,170.618z"/>
	<path fill-rule="evenodd" clip-rule="evenodd" fill="#FFFFFF" d="M241.627,145.613c-0.655-2.712-1.311-5.424-1.966-8.137
		C242.615,139.633,241.799,142.701,241.627,145.613z"/>
	<path fill-rule="evenodd" clip-rule="evenodd" fill="#FFFFFF" d="M243.1,154.406c-0.334-1.652-0.669-3.304-1.004-4.955
		C243.944,150.796,243.765,152.552,243.1,154.406z"/>
	<path fill-rule="evenodd" clip-rule="evenodd" fill="#FFFFFF" d="M66.976,208.817c-1.027-9.708-1.021-18.511-0.022-27.823
		c9.475-1.867,18.725-0.686,27.89-0.897c9.298-0.215,18.604-0.048,27.907-0.048c8.971,0,17.943-0.084,26.912,0.023
		c9.201,0.111,18.443-0.49,27.926,0.461c0,9.723,0,18.585,0,27.078c-0.682,0.583-0.917,0.824-1.191,1.008
		c-0.266,0.176-0.57,0.412-0.858,0.414c-34.214,0.114-68.429,0.215-102.644,0.286C71.258,209.322,69.62,209.051,66.976,208.817z"/>
	<path fill-rule="evenodd" clip-rule="evenodd" fill="#FFFFFF" d="M67.06,161.485c-1.188-9.583-0.938-18.376-0.313-27.007
		c9.471-1.538,101.531-1.498,110.848,0.031c0.813,8.633,0.197,17.428,0.311,25.407c-0.963,1.062-1.15,1.36-1.419,1.54
		c-0.26,0.174-0.601,0.315-0.907,0.316c-34.544,0.116-69.088,0.223-103.633,0.299C70.648,162.075,69.352,161.771,67.06,161.485z"/>
</g>
</svg>
