<?xml version="1.0" encoding="utf-8"?>
<!-- Generator: Adobe Illustrator 16.0.0, SVG Export Plug-In . SVG Version: 6.00 Build 0)  -->
<!DOCTYPE svg PUBLIC "-//W3C//DTD SVG 1.0//EN" "http://www.w3.org/TR/2001/REC-SVG-20010904/DTD/svg10.dtd">
<svg version="1.0" id="Layer_1" xmlns="http://www.w3.org/2000/svg" xmlns:xlink="http://www.w3.org/1999/xlink" x="0px" y="0px"
	 width="418.247px" height="341.183px" viewBox="0 0 418.247 341.183" enable-background="new 0 0 418.247 341.183"
	 xml:space="preserve">
<g>
	<path fill-rule="evenodd" clip-rule="evenodd" fill="#FFFFFF" d="M178.091,99.809c45.066-25.999,89.406-51.579,133.173-76.829
		c1.278,0.497,1.673,0.532,1.841,0.746c0.184,0.234,0.217,0.632,0.217,0.959c0.069,80.988,0.133,161.977,0.176,242.964
		c0.001,1.313-0.245,2.624-0.461,4.785c-44.389,13.352-88.907,26.743-132.97,39.998c-0.88-0.663-1.167-0.801-1.333-1.027
		c-0.192-0.261-0.379-0.597-0.394-0.908c-0.106-2.324-0.238-4.651-0.238-6.978C178.089,235.881,178.091,168.243,178.091,99.809z"/>
	<path fill-rule="evenodd" clip-rule="evenodd" fill="#FFFFFF" d="M163.479,99.018c0,71.709,0,142.234,0,213.787
		c-44.776-13.503-88.927-26.816-132.837-40.059c-1.255-7.876-1.642-234.586-0.515-248.997c0.267-0.122,0.522-0.286,0.802-0.354
		c0.314-0.078,0.732-0.215,0.965-0.081C75.72,48.508,119.532,73.725,163.479,99.018z"/>
	<path fill-rule="evenodd" clip-rule="evenodd" fill="#FFFFFF" d="M17.16,285.893c10.879,3.035,22.362,6.24,33.847,9.44
		c35.875,9.998,71.744,20.02,107.633,29.971c8.511,2.36,17.047,2.421,25.543-0.323c44.947-14.513,89.905-28.996,134.853-43.512
		c2.511-0.811,4.959-1.818,7.826-2.88c1.13-3.901,0.685-7.881,0.687-11.783c0.026-77.638,0.016-155.276,0.028-232.913
		c0.001-3.549,0.153-7.097,0.261-11.714c5.931,3.272,10.006,7.013,13.965,10.763c0,85.473,0,170.711,0,256.404
		c-13.449,4.302-26.681,8.563-39.931,12.769c-38.689,12.278-77.385,24.54-116.082,36.797c-9.464,2.998-19.068,2.934-28.522,0.365
		c-33.065-8.981-66.075-18.169-99.1-27.303c-16.028-4.434-32.045-8.912-48.061-13.396c-2.861-0.802-5.688-1.729-8.367-2.547
		c-1.738-8.664-2.429-227.74-0.87-262.5c3.448-4.42,8.33-7.609,12.798-10.604c1.111,0.424,1.504,0.457,1.673,0.668
		c0.186,0.234,0.177,0.629,0.229,0.958c0.054,0.327,0.09,0.658,0.115,0.989c0.024,0.332,0.029,0.666,0.036,0.998
		c0.007,0.334,0.006,0.667,0.007,1c0.002,0.333,0.002,0.666,0.001,1c-0.001,0.666-0.003,1.332-0.004,1.999
		c0,0.333-0.001,0.666-0.001,0.999c0.001,81.303,0.002,162.606,0.003,243.909c0,0.333,0.001,0.666,0.002,1
		c0.002,0.666,0.005,1.332,0.007,1.999c0.002,0.333,0.004,0.666,0.006,1c0.002,0.333,0.002,0.666,0.007,0.999
		c0.004,0.333,0.01,0.666,0.018,0.999c0.007,0.334,0.002,0.668,0.032,0.999c0.029,0.331,0.09,0.659,0.146,0.986
		c0.056,0.328,0.073,0.676,0.199,0.977C16.27,284.706,16.509,284.957,17.16,285.893z"/>
	<path fill-rule="evenodd" clip-rule="evenodd" fill="#FFFFFF" d="M386.767,45.126c10.425-0.511,20.266-0.12,30.791-0.271
		c0.268,2.864,0.652,5.065,0.653,7.268c0.031,70.28,0.041,140.562-0.021,210.841c-0.003,3.289-0.281,6.693-1.153,9.844
		c-4.436,16.014-9.108,31.96-14.014,49.025c-1.295-2.699-2.472-4.485-3.042-6.446c-4.175-14.365-8.329-28.739-12.249-43.176
		c-0.942-3.472-1.369-7.188-1.373-10.793c-0.079-69.281-0.064-138.563-0.043-207.844C386.316,50.998,386.584,48.422,386.767,45.126z
		"/>
	<path fill-rule="evenodd" clip-rule="evenodd" fill="#FFFFFF" d="M418.181,32.459c-10.887,0-20.741,0-30.967,0
		c-1.655-6.367-1.318-12.705-0.607-18.826c0.902-7.76,7.119-14.194,16.748-13.594c8.807,0.549,14.42,6.113,14.789,15.449
		C418.353,20.775,418.181,26.078,418.181,32.459z"/>
</g>
</svg>
