<?xml version="1.0" encoding="utf-8"?>
<!-- Generator: Adobe Illustrator 16.0.0, SVG Export Plug-In . SVG Version: 6.00 Build 0)  -->
<!DOCTYPE svg PUBLIC "-//W3C//DTD SVG 1.0//EN" "http://www.w3.org/TR/2001/REC-SVG-20010904/DTD/svg10.dtd">
<svg version="1.0" id="Layer_1" xmlns="http://www.w3.org/2000/svg" xmlns:xlink="http://www.w3.org/1999/xlink" x="0px" y="0px"
	 width="380.114px" height="384.621px" viewBox="0 0 380.114 384.621" enable-background="new 0 0 380.114 384.621"
	 xml:space="preserve">
<g>
	<path fill-rule="evenodd" clip-rule="evenodd" fill="#FFFFFF" d="M98.458,384.621C65.175,365.717,33,347.044,1.534,328.766
		c-1.59-9.085-2.081-91.096-0.816-113.119c2.016-1.502,4.451-3.713,7.233-5.327c23.912-13.868,47.894-27.615,71.836-41.433
		c4.006-2.312,7.922-4.78,12.136-7.332c0.055-35.288-0.028-70.21,0.052-105.539C124.611,36.803,156.91,18.283,188.873,0
		c8.652,3.01,91.34,50.537,99.045,57.027c0.587,10.83,0.164,22.456,0.246,34.062c0.081,11.665,0.018,23.331,0.018,34.996
		c0,11.646,0,23.293,0,35.405c30.322,18.196,61.279,35.016,90.614,52.939c1.438,8.67,1.797,99.083,0.591,112.597
		c-1.379,1.216-2.897,3.064-4.836,4.188c-29.396,17.031-58.846,33.973-88.298,50.908c-1.138,0.654-2.431,1.038-4.504,1.905
		c-3.651-1.903-7.805-3.886-11.784-6.172c-25.415-14.6-50.791-29.27-76.187-43.905c-1.136-0.655-2.327-1.212-3.908-2.029
		C159.702,349.313,129.461,366.746,98.458,384.621z M289.502,365.674c26.092-15.061,51.966-29.813,77.37-44.697
		c1.239-11.577,0.97-82.437-0.444-90.807c-13.378,7.178-26.204,14.733-38.999,22.27c-13.106,7.721-26.716,14.666-38.855,22.968
		C287.306,298.475,287.821,356.953,289.502,365.674z M13.352,320.999c24.22,14.029,48.407,28.046,72.606,42.044
		c1.146,0.663,2.379,1.186,3.599,1.711c0.26,0.113,0.645-0.008,0.956-0.087c0.293-0.074,0.565-0.233,1.083-0.457
		c0-29.494,0-59.09,0-88.33c-0.784-0.833-1.151-1.451-1.694-1.766c-24.201-14.026-48.411-28.037-72.659-41.982
		c-0.988-0.568-2.351-0.487-3.548-0.711C12.301,239.698,12.01,307.589,13.352,320.999z M203.039,218.332
		c26.769,15.985,52.697,30.589,78.855,45.752c26.072-15.047,51.927-29.969,79.061-45.629c-27.143-15.738-53.1-30.965-79.373-45.546
		C255.386,188.059,229.828,202.84,203.039,218.332z M176.399,112.876c-1.719-1.604-2.338-2.439-3.164-2.916
		c-21.001-12.12-42.011-24.225-63.07-36.243c-1.528-0.873-3.44-1.075-5.852-1.79c0,5.146,0.003,9.45,0,13.755
		c-0.004,4.652-0.015,9.306-0.019,13.958c-0.004,4.321-0.002,8.642-0.003,12.962c0,4.653,0,9.306,0.001,13.959
		c0,4.32-0.096,8.644,0.028,12.961c0.128,4.456-0.55,9.012,0.833,14.512C129.385,140.33,152.606,126.988,176.399,112.876z
		 M104.306,283.84c0,25.478-0.004,50.063,0.01,74.649c0.002,1.656,0.133,3.313,0.231,4.967c0.02,0.325,0.08,0.717,0.278,0.941
		c0.188,0.212,0.578,0.245,1.38,0.544c0.822-0.321,2.101-0.641,3.195-1.277c21.818-12.681,43.616-25.397,65.409-38.123
		c0.266-0.155,0.508-0.488,0.587-0.784c0.066-0.249-0.121-0.566-0.196-0.854C165.45,316.725,112.311,286.483,104.306,283.84z
		 M196.669,123.565c0,28.617,0,55.387,0,82.287c8.254-2.634,64.204-34.996,71.049-41.202
		C244.376,151.152,221.267,137.79,196.669,123.565z M203.599,112.016c10.83,7.864,64.314,38.372,71.033,40.695
		c1.338-7.656,1.52-70.072,0.209-80.457c-0.948,0.096-2.063-0.102-2.814,0.33C249.528,85.498,227.064,98.475,203.599,112.016z
		 M183.377,125.202c-6.854,1.997-54.093,28.669-70.893,39.966c1.287,1.15,2.343,2.393,3.658,3.227
		c21.1,13.37,60.006,35.049,67.234,37.447C183.377,178.922,183.377,152.122,183.377,125.202z M183.371,229.944
		c-24.527,13.526-47.482,27.228-71.749,41.235c7.996,5.842,15.999,9.746,23.593,14.259c7.988,4.747,15.992,9.489,24.195,13.844
		c7.752,4.116,14.678,9.924,23.961,12.591C183.371,284.641,183.371,258.17,183.371,229.944z"/>
</g>
</svg>
