<?xml version="1.0" encoding="utf-8"?>
<!-- Generator: Adobe Illustrator 16.0.0, SVG Export Plug-In . SVG Version: 6.00 Build 0)  -->
<!DOCTYPE svg PUBLIC "-//W3C//DTD SVG 1.0//EN" "http://www.w3.org/TR/2001/REC-SVG-20010904/DTD/svg10.dtd">
<svg version="1.0" id="Layer_1" xmlns="http://www.w3.org/2000/svg" xmlns:xlink="http://www.w3.org/1999/xlink" x="0px" y="0px"
	 width="276.746px" height="381.147px" viewBox="0 0 276.746 381.147" enable-background="new 0 0 276.746 381.147"
	 xml:space="preserve">
<g>
	<path fill-rule="evenodd" clip-rule="evenodd" fill="#FFFFFF" d="M233.537,281.594c-11.717,1.415-21.363,0.602-30.978,0.81
		c-9.244,0.2-18.517-0.323-27.513,0.349c-2.848,11.725-4.215,34.984-2.551,43.495c5.961,0.286,12.099,0.582,17.943,0.862
		c0.312,1.02,0.488,1.34,0.483,1.656c-0.005,0.31-0.113,0.696-0.319,0.911c-5.534,5.754-11.023,11.554-16.648,17.217
		c-11.242,11.315-22.56,22.555-34.276,34.254c-10.201-8.414-18.495-17.905-27.481-26.646c-8.774-8.532-17.314-17.305-27.303-27.322
		c8.316-0.323,14.732-0.572,21.009-0.816c1.688-6.701-0.071-32.372-2.983-43.228c-2.275-0.228-4.822-0.686-7.373-0.702
		c-12.662-0.079-25.326-0.041-37.988-0.045c-3.288-0.001-6.576,0-8.574,0c-4.133-2.665-4.678-5.726-5.154-8.633
		c-3.549-21.614-6.92-43.259-10.48-64.871c-3.723-22.592-7.66-45.148-11.387-67.74c-3.622-21.95-7.02-43.938-10.655-65.886
		C7.675,53.319,3.83,31.417,0.197,9.478c-0.41-2.484-0.055-5.096-0.055-8.208C3.154,1.005,5.727,0.61,8.304,0.577
		c94.095-1.188,259.501-0.445,268.442,1.33c-2.443,23.219-6.875,46.23-10.12,69.393c-3.313,23.643-7.504,47.162-11.144,70.762
		c-3.59,23.274-6.541,46.654-10.563,69.852C240.922,234.97,238.316,258.297,233.537,281.594z M263.621,13.655
		c-4.184-1.675-7.865-1.123-11.443-1.125c-71.916-0.031-143.832-0.025-215.749-0.026c-6.326,0-12.653-0.08-18.978,0.056
		c-1.782,0.038-3.551,0.712-5.619,1.157c3.525,17.851,6.913,35.013,10.366,52.503c4.748,0.646,8.872,0.436,13.193-0.314
		c12.5-2.169,24.478-6.023,36.345-10.336c9.665-3.513,19.523-4.227,29.346-1.102c10.423,3.316,20.771,6.908,31.004,10.77
		c22.892,8.641,46.172,12.005,70.15,5.418c8.635-2.372,17.229-5.094,25.524-8.439c9.321-3.76,18.535-6.92,29.207-3.844
		C259.576,43.067,263.166,28.693,263.621,13.655z M139.391,103.692c-1.609,2.463-2.12,3.254-2.639,4.039
		c-10.447,15.809-20.975,31.565-31.31,47.447c-5.277,8.111-9.446,16.76-11.237,26.401c-3.985,21.455,7.221,41.486,26.209,48.336
		c13.583,4.899,27.516,4.585,40.801-1.476c11.619-5.302,19.238-14.842,21.748-27.023c2.729-13.232,1.379-26.639-6.108-38.516
		c-11.518-18.271-23.324-36.361-34.987-54.541C141.141,107.227,140.595,105.978,139.391,103.692z"/>
</g>
</svg>
