<?xml version="1.0" encoding="utf-8"?>
<!-- Generator: Adobe Illustrator 16.0.0, SVG Export Plug-In . SVG Version: 6.00 Build 0)  -->
<!DOCTYPE svg PUBLIC "-//W3C//DTD SVG 1.0//EN" "http://www.w3.org/TR/2001/REC-SVG-20010904/DTD/svg10.dtd">
<svg version="1.0" id="Layer_1" xmlns="http://www.w3.org/2000/svg" xmlns:xlink="http://www.w3.org/1999/xlink" x="0px" y="0px"
	 width="402.583px" height="342.998px" viewBox="0 0 402.583 342.998" enable-background="new 0 0 402.583 342.998"
	 xml:space="preserve">
<g>
	<path fill-rule="evenodd" clip-rule="evenodd" fill="#FFFFFF" d="M129.165,325.572c-2.833-0.955-5.666-1.91-8.499-2.865
		c-0.451-0.505-1.009-0.689-1.673-0.554c-2.778-1.201-5.557-2.402-8.336-3.604c-0.404-0.494-0.92-0.675-1.545-0.543l-0.091-0.006
		c-1.307-0.665-2.612-1.329-3.919-1.994l-0.065-0.014c-0.746-0.424-1.492-0.847-2.238-1.271
		c-10.628-6.79-21.739-12.937-31.797-20.488c-35.307-26.511-58.646-61.212-69.206-104.241c-1.246-5.076-2.935-10.288-0.716-15.279
		c3.29-3.24,7.141-2.271,10.696-2.283c22.636-0.077,45.272-0.041,67.908-0.041c100.531,0,201.063,0,301.594,0.009
		c4.66,0,9.322,0.017,13.979,0.153c2.438,0.071,2.436,0.197,7.326,4.207c-1.009,5.032-1.839,10.576-3.246,15.971
		c-9.793,37.523-29.757,68.68-59.119,93.907c-2.521,2.165-4.927,4.464-7.387,6.7c-1.281,0.96-2.563,1.921-3.844,2.881
		c-13.563,9.02-27.662,17.104-42.303,24.242c-1.339,0.534-2.678,1.068-4.018,1.603c-4.326,1.473-8.652,2.945-12.992,4.424
		c-0.403,5.237-0.755,9.797-1.144,14.844c-2.47,0.615-4.628,1.617-6.788,1.621c-39.493,0.079-78.985,0.048-118.478-0.013
		c-1.609-0.003-3.218-0.524-4.509-0.749c-4.365-4.026-1.722-9.177-3.348-14.219c-1.283-0.473-3.039-1.119-4.795-1.766l-0.566-0.751
		L129.165,325.572z"/>
	<path fill-rule="evenodd" clip-rule="evenodd" fill="#FFFFFF" d="M136.899,11.339c-1.67,3.069-3.468,6.215-5.119,9.434
		c-6.433,12.538-11.4,25.471-11.097,39.91c0.239,11.434,4.226,21.359,11.356,30.19c3.965,4.91,7.972,9.82,11.511,15.035
		c10.198,15.029,12.715,31.083,7.935,49.829c-7.919,1.633-16.024,1.182-24.652,0.193c0.117-2.01-0.08-3.667,0.344-5.146
		c4.257-14.846-0.702-27.469-9.392-39.158c-2.772-3.73-6.009-7.115-8.801-10.833C96.968,84.786,93.072,66.938,96.048,47.144
		c1.865-12.412,6.208-23.737,12.041-34.647c1.095-2.047,2.4-3.986,3.691-5.921c3.239-4.854,7.679-7.154,13.609-6.451
		C131.394,0.836,135.031,4.084,136.899,11.339z"/>
	<path fill-rule="evenodd" clip-rule="evenodd" fill="#FFFFFF" d="M228.637,156.474c-3.492,0.063-7.423,0.193-11.354,0.189
		c-3.931-0.003-7.861-0.14-12.447-0.23c0.244-2.676,0.151-4.609,0.626-6.391c3.009-11.297,0.742-21.786-4.997-31.608
		c-2.335-3.996-5.074-7.87-8.209-11.265c-16.854-18.25-22.34-39.489-17.495-63.676c2.646-13.215,7.688-25.403,14.995-36.695
		c2.479-3.832,5.609-6.426,10.445-6.693c7.97-0.44,11.287,1.904,14.627,11.479c-1.499,2.875-3.315,6.377-5.149,9.871
		c-6.247,11.902-10.916,24.23-10.857,37.961c0.052,12.143,3.899,22.863,11.773,32.057c6.736,7.865,13.109,15.941,17.04,25.648
		C232.916,130.169,234.626,145.622,228.637,156.474z"/>
	<path fill-rule="evenodd" clip-rule="evenodd" fill="#FFFFFF" d="M307.825,156.068c-8.445,1.066-16.274,0.642-24.805,0.264
		c0.219-2.618,0.13-4.544,0.57-6.339c3.048-12.413,0.421-23.748-6.521-34.191c-2.387-3.592-5.101-7.004-7.962-10.234
		c-16.494-18.621-21.277-40.185-15.875-64.112c2.571-11.388,6.695-22.275,13.051-32.209c2.175-3.4,4.398-6.673,8.168-8.42
		c12.907-1.479,15.874,0.323,18.098,11.573c-2.029,3.91-4.337,8.309-6.599,12.73c-5.681,11.105-9.233,22.775-9.013,35.369
		c0.205,11.724,4.207,21.997,11.728,31.049c4.45,5.355,8.944,10.801,12.487,16.76C309.803,122.851,313.399,138.361,307.825,156.068z
		"/>
	<path fill-rule="evenodd" clip-rule="evenodd" fill="#FFFFFF" d="M328.987,296.218c1.281-0.96,2.563-1.921,3.844-2.881
		C332.53,295.604,331.085,296.347,328.987,296.218z"/>
	<path fill-rule="evenodd" clip-rule="evenodd" fill="#FFFFFF" d="M105.103,316.007c1.307,0.665,2.612,1.329,3.919,1.994
		C107.233,318.282,105.609,318.243,105.103,316.007z"/>
	<path fill-rule="evenodd" clip-rule="evenodd" fill="#FFFFFF" d="M282.667,322.063c1.34-0.534,2.679-1.068,4.018-1.603
		C285.346,320.994,284.007,321.528,282.667,322.063z"/>
	<path fill-rule="evenodd" clip-rule="evenodd" fill="#FFFFFF" d="M118.993,322.153c0.664-0.136,1.222,0.049,1.673,0.554
		C120.108,322.522,119.551,322.338,118.993,322.153z"/>
	<path fill-rule="evenodd" clip-rule="evenodd" fill="#FFFFFF" d="M129.165,325.572l0.883-0.118l0.566,0.751
		C130.013,326.257,129.53,326.046,129.165,325.572z"/>
	<path fill-rule="evenodd" clip-rule="evenodd" fill="#FFFFFF" d="M102.799,314.723c0.746,0.424,1.492,0.847,2.238,1.271
		C104.291,315.569,103.545,315.146,102.799,314.723z"/>
	<path fill-rule="evenodd" clip-rule="evenodd" fill="#FFFFFF" d="M109.112,318.007c0.625-0.132,1.141,0.049,1.545,0.543
		c-0.363,0.286-0.728,0.572-1.092,0.859C109.414,318.941,109.263,318.474,109.112,318.007z"/>
</g>
</svg>
